<?xml version="1.0" encoding="UTF-8"?>
<svg id="Ebene_2" xmlns="http://www.w3.org/2000/svg" version="1.1" viewBox="0 0 430.9 303.3">
  <!-- Generator: Adobe Illustrator 29.3.0, SVG Export Plug-In . SVG Version: 2.1.0 Build 146)  -->
  <defs>
    <style>
      .st0 {
        fill: #254980;
      }
    </style>
  </defs>
  <g>
    <path class="st0" d="M32,276.9c-1.5-1.2-3.1-1.5-3.1-2.6s4-3,5.1-5.8c.6-1.4,1.2-3.3,1.2-5.7,0-6.1-7.2-8.6-12.2-9.5-3-.5-5.9-.6-8.9-.2-1.6.2-7.1.5-7.3,2.9-.4,5.8-.1,11.6-.5,17.5-.2,3.6-.5,7.2-.6,10.8,0,3.4.4,6.8.4,10.2s1.8,4.9,4.4,4.9,4,0,6.3,0,1.6-.1,2.4-.1c3.7,0,5.1-.3,8.2-1.7,1.9-.8,1.2-.5,4-2.6,3.5-2.7,4.9-5.1,4.9-10.1s-2-5.8-4.4-8ZM15.2,263.5c0-1.5.4-2,2.4-2.3.5,0,1.2-.1,2.1-.1,4.3,0,5.9,1.8,5.9,4.5,0,5.1-7.9,6.3-9,6.3s-1.3-.5-1.3-1.8,0-2.5,0-3.1,0-2.6,0-3.5ZM27.5,285.3c-.7,3.7-3.2,6-7.2,6h-.5c-2.6,0-4.8,0-4.8-2.1s0-.7,0-1c0-2-.2-3.9-.2-5.9s.3-2.9,3.2-2.9,2.8,0,4.9.1c.4,0,.7,0,1.1.2,2.4.5,3.6,1.8,3.6,3.9s0,1-.1,1.5Z"/>
    <path class="st0" d="M72.1,281.2c-1.4-3.8-2.8-7.5-4-11.4-.8-2.6-1.4-5.2-2.3-7.8-.4-1.3-.9-2.7-1.5-4-.4-1-.7-2.4-1.8-3-.7-.4-1.6-.4-2.4-.4-1.5,0-3.1,0-4.6,0-.6,0-1.2,0-1.6.4-.6.5-.6,1.4-.8,2.1-.3,1.1-.8,2.2-1.3,3.2-.8,2.1-1.7,4.3-2.5,6.4-.8,2-1.5,3.9-2.2,5.9-.6,1.8-1,3.7-1.5,5.5-1,3.7-2.4,7.4-3.8,11-.3,0-1.6,4.3-1.8,4.7-.4,1.1-1.3,2.7.1,3.4,1.3.6,2.6,1.2,3.9,1.8.7.3,1.4.6,2.1.3.8-.4.7-1.2,1.1-1.9.4-.7.9-1.3,1.2-2.1.7-1.8.9-3.7,1.6-5.6.2-.7.4-1.5,1-2.1,1.7-1.7,4.3-1.6,6.5-1.5,1.9.1,5.3-.4,6.6,1.2.7.8.9,2,1.2,2.9.4,1.2.7,2.4,1.1,3.5.5,1.2,1.1,2.4,1.7,3.7.1.3.3.6.5.8.5.4,1.3.3,2,.1,1.5-.4,2.9-.8,4.4-1.3.5-.2,1.1-.4,1.4-.8.7-1,0-3-.3-4-1.1-3.8-2.6-7.6-4-11.3ZM61,279c-.1.2-.3.3-.6.3s-.8-.1-1.2-.1h-.4c-.7,0-1.4,0-2.1,0s-1.5,0-2.3-.4c-.4-.1-.4-.4-.4-.8s.2-1.2.3-1.5c.6-2.2,1.3-5.4,2.3-7.5.2-.6.7-2.1,1.2-2.1h0c.6.1,1.1,1.5,1.2,2.1.8,1.9,1.3,5.7,1.8,7.8,0,.4.2,1,.2,1.5s0,.6-.1.7Z"/>
    <path class="st0" d="M116,254.7c-.4-.7-1.3-.8-2.1-.8-1.6,0-3.1-.1-4.7-.2-.5,0-1.2,0-1.5.4-.2.3-.2.6-.2,1,0,3.9,0,7.8-.2,11.7,0,.5,0,1.2,0,1.8,0,1.1-.3,2.2-1.4,2.6-1.5.6-3.3,0-4.9-.1-2.5-.2-4.9,0-7.4,0-.7,0-1.5-.3-1.9-1-.6-1-.4-2.4-.5-3.5-.1-1.1-.2-1.8-.1-2.7,0-2.7.2-5.3.4-8,0-.3,0-.6,0-.8-.2-.5-.9-.6-1.5-.6-1.8-.1-3.6-.2-5.4-.3-.8,0-1.9-.1-2.3.7-.4.8-.1,2.4-.2,3.3,0,2.1-.2,4.3-.2,6.3,0,2.1,0,4.1-.2,6.2,0,1,0,2.1-.2,3.1,0,.6-.1,1.1-.1,1.7,0,1.1,0,2.3,0,3.5,0,.7-.1,1.5-.2,2.3-.1,3.3,0,6.8,0,9.9,0,1.8.1,3.7.2,5.5,0,.5,0,1.1.4,1.5.4.5,1,.6,1.6.7,1.3.2,6.2,1.4,7.1,0,.2-.3.2-.8.2-1.1,0-2.1,0-4.2,0-6.3,0-2.1.3-6.9.4-8.5,0-1,.2-1.9.7-2.5.5-.6,1.1-.8,1.8-.7,2,0,4.1,0,6.1.2,1.6,0,3.1.2,4.7.3.4,0,.8,0,1.2.1.9.3,1.1,1.1,1.1,2,0,.8-.2,1.8-.2,2.4.2,3.9.2,7.8.3,11.7,0,.5,0,.9.2,1.4.7,1.7,3.2.9,4.5,1,1,0,3.3.5,4.1-.1.8-.7.6-3.2.6-4.1.1-2.9.2-5.9.4-8.8.1-3.4.3-6.8.3-10.2,0-6.5-.4-13-.7-19.5,0-.4,0-.8-.2-1.2Z"/>
    <path class="st0" d="M158.3,255.3c-1.6,0-3.8-.3-5.3,0-1.3.3-1.1,1.7-1.2,2.9-.3,5.7-.8,11.4-1.1,17.1,0,.5,0,1,0,1.5,0,1.2,0,2.4,0,3.5,0,.3,0,.6,0,1,0,.7-.1,1.4-.4,1.5,0,0,0,0-.2,0-.7,0-1.6-2.6-2.2-3.9-2.8-6.5-7.3-11.8-10.7-17.9-1.4-2.4-1.9-6.3-5.3-6.4-1.5,0-3.5-.2-4.9.3-1.3.5-1.2,1.9-1.3,3.2-.6,11.2-.9,22.4-1.5,33.6,0,1,0,2-.1,3,0,.8-.2,1.5.5,2,.4.3,1,.4,1.5.5,1.5.2,3,.5,4.5.7.5,0,1.1.1,1.4-.2.2-.2.2-.6.2-.9,0,0,.6-8.1.7-8.8,0-1,0-2,0-3,0-1.5.2-2.9.3-4.5,0-1.3,0-2.6,0-4,0-.4,0-.7,0-1,0-1.2.3-2.3.9-2.5,0,0,.2-.1.3,0,.9.9,1.2,1.8,1.8,3,1.6,2.9,5.1,9.2,12.2,19.3.5.8,1.3,1.4,2.1,1.8,1.4.8,3.2.8,4.8.7.8,0,2.4,0,2.9-.7.1-.2.1-.4.2-.7,0-.9.1-1.8.2-2.7,0-.6.3-1.2.3-1.8.3-2.8.3-5.8.3-8.7,0-1.8,0-3.6,0-5.4,0-5-.2-10.3.5-15.3.2-1.7,1.6-7.2-1.5-7.2Z"/>
    <path class="st0" d="M196.5,263.4c-2.6,0-5.2,0-7.7-.1-1.2,0-2.4,0-3.6,0-.7,0-1.7-.4-2.3,0-.7.4-.5,2.4-.6,3.2,0,.6,0,1.2.5,1.6.3.3.8.4,1.2.4,1.7.2,3.5.6,5.2.6.5.1,1.2.2,1.8.3.3,0,.6,0,.8.4v.2c0,.4-.5,1-.8,1.2-3,3.8-6.2,8-8.4,12.4-.5.9-1.5,2.6-1.5,3.8s0,.5.2.7c.2.3.4.7.7,1,1.5,1.2,4.5.7,6.3.8,3.6.2,7.2.1,10.8.5.9.1,1.8.7,2.5-.1.4-.4.4-1.1.4-1.7,0-1.1.3-3-.5-3.9-.8-.8-2.4-.7-3.4-.7-1.4,0-2.8,0-4.2-.1h-.3c-.9,0-2.4,0-2.6-.8v-.2c0-.4.2-.8.4-1.1.6-1,1.1-1.5,1.7-2.4.4-.6.6-1.4,1.1-2,.3-.4.8-.6,1.1-1.1,1.5-2,3.2-3.8,4.5-5.9.9-1.3,2.1-2.7,2.4-4.2.4-2.9-3.9-2.5-5.6-2.5Z"/>
    <path class="st0" d="M226.3,264.5c-1-1.1-3.4-.6-4.8-.7-.8,0-1.6,0-1.6.9,0,3.2.1,6.4.1,9.6,0,1.7,0,3.4,0,5.1,0,1.1.2,2.7-.3,3.7-1.1,1.6-4.9,1-6.3.2-1.8-1-1.6-4.2-1.6-5.9,0-3.9.6-8.2,0-12,0-.4-.3-.8-.6-1.1-.4-.3-1-.3-1.5-.4-.8,0-3.7-.6-4.3.2-.2.3-.1,1.2-.1,1.5,0,2.2-.2,4.5-.2,6.7s.1.5.1.8,0,.2,0,.3c-.1.3-.1.7-.1,1.1s0,.8,0,1.1c0,1.2-.2,2.9-.2,4.1.1,2.4,0,4.8,1.6,6.7,2,2.7,4.3,3.7,7.7,3.5,1.2,0,2.3-.3,3.5-.6.6-.2,2-.9,2.6-.6.6.3.8,1.4,1.6,1.8,1,.5,2.1.5,3.2.4.4,0,1,0,1.2-.4.2-.3.2-.6.2-.9,0-1.6.3-3.1.3-4.6s.3-11.9.3-14.1-.4-3.4-.4-5.2c0-.4-.1-.9-.4-1.2Z"/>
    <path class="st0" d="M262.8,263.5c-2.1-.5-4.1-.2-6.1.3-.8.2-1.6.4-2.2.8-.7.4-1.2,1.2-2.1,1.2h0c-.8,0-1.5-.7-2.3-1-1-.4-2.2-.6-3.3-.6-1.6-.1-3.1-.3-4.7.1-.9.3-2.2.7-3.9,1.5-.6.3-.4-1.3-1.1-1.7-.4-.2-.9-.2-1.4-.2-.7,0-1.5,0-2.2,0-1.1,0-1.4.2-1.4,1.3.2,7.3,0,14.5.2,21.8,0,.7-.3,2,.3,2.5.3.2.6.2,1,.3,1.3,0,2.5.1,3.8.2.4,0,.9,0,1.2-.3.6-.5.3-2.2.3-2.9,0-1.1,0-2.2,0-3.2,0-2.1,0-4.2.2-6.3.1-1.4,0-4.1,1.1-5.2.3-.3.5-.7.8-1,.7-.7,1.8-1.2,2.8-1.4.2,0,.5,0,.9,0,.8,0,1.6.1,2,.4.9,1,.8,2.7.8,3.8,0,.6,0,1,0,1.7,0,.7-.2,1.6-.2,2.3,0,.4,0,.9,0,1.2v1.2c0,1.2-.2,2.4-.2,3.5,0,1.3,0,2.7,0,4,0,.3,0,.7.1,1,.5,1.2,3.5.8,4.6.9.4,0,.8,0,1.1-.1,1.1-.5.7-1.9.7-2.8,0-2.3.2-4.6.4-7,.1-2.1-.2-4.8.4-6.8.2-.5.6-1.4.9-1.8.6-.8.9-1.1,1.7-1.7.5-.4,1.2-.5,1.8-.6.4,0,.9-.1,1.4-.1h.5c1.3,0,1.6,1.1,1.6,2.3,0,5.9,0,11.8.3,17.7,0,.3,0,.6.2.9.3.3.7.3,1.1.4.9,0,1.8,0,2.8,0,.8,0,1.7.2,2-.7.2-.5,0-.9,0-1.4,0-.8.2-1.5.2-2.3,0-1.1,0-2.3,0-3.4,0-4.1,0-8.2-.4-12.2-.3-3.2-2.4-5.7-5.6-6.5Z"/>
    <path class="st0" d="M313.5,276.9c-1.5-1.2-3.1-1.5-3.1-2.6s4-3,5.1-5.8c.6-1.4,1.2-3.3,1.2-5.7,0-3.5-2.1-5.6-4.9-6.9-3.1-1.5-7-2-10.1-2.4h-.7c-3.5,0-6.8.7-10.2,1.1-1,.1-2.2.3-2.7,1.1-.5.7-.4,1.6-.4,2.4.5,8.2.2,16.4,0,24.6-.1,3.9-2.4,16.8,4.4,16.8s4,0,6.3,0,1.6-.1,2.4-.1c3.7,0,5.1-.3,8.2-1.7,1.9-.8,1.2-.5,4-2.6,3.5-2.7,4.9-5.1,4.9-10.1s-2-5.8-4.4-8ZM296.7,263.5c0-1.5.4-2,2.4-2.3.5,0,1.2-.1,2.1-.1,4.3,0,5.9,1.8,5.9,4.5,0,5.1-7.9,6.3-9,6.3s-1.3-.5-1.3-1.8,0-2.5,0-3.1,0-2.6,0-3.5ZM308.9,285.3c-.7,3.7-3.2,6-7.2,6h-.5c-2.6,0-4.8,0-4.8-2.1s0-.7,0-1c0-2-.2-3.9-.2-5.9s.3-2.9,3.2-2.9,2.8,0,4.9.1c.4,0,.7,0,1.1.2,2.4.5,3.6,1.8,3.6,3.9s0,1-.1,1.5Z"/>
    <path class="st0" d="M347.5,289.4c-.1-.6-.7-1-1.3-.9-2.2.2-11.8,3.1-12.9.8-.2-.4-.3-.8-.3-1.2l-.2-6.6c0-1,.6-1.9,1.6-2.1,2.5-.7,5.7-.9,7.6-.8.9,0,2,.8,2.6-.5.2-.5.3-1,.3-1.5,0-1.3.5-3.1-.6-4.2-2.2-2.1-11.3,2-11.5-2.1,0,0,0-.1,0-.2,0-.9.2-1.8.2-2.7,0-.7-.2-1.7-.2-2.6-.2-4.7,8.9-3.6,11.8-3.5.5,0,2,.3,2.3-.3.1-.2.1-.5.1-.8,0-1.2,0-2.5,0-3.7,0-2.7-1.4-3.6-4-3.6-5,0-10.2.4-15.1,1.5-2.7.6-3.1,3-3.1,5.2.1,3.6,0,7.2,0,10.7,0,8-.4,16-.4,23.9,0,1.8,1.7,5,4.3,4.9,6.1-.3,12.8-1,18.7-2.6.9-.2,1.4-1.2,1.3-2.1l-1-5Z"/>
    <path class="st0" d="M387.6,292.9c-.3,0-1.3-1.2-1.5-1.5-.6-.6-1.3-1.2-1.9-1.8-.5-.5-1-1-1.5-1.5-.7-.7-1.4-1.5-2.1-2.2-1.1-1.2-2.2-2.5-3.3-3.8-.5-.6-1.5-2.5-2.4-3,1.1-.2,3.3-3.1,3.7-3.6,2.7-3.1,4.7-6.1,5.1-10.3v-.7c0-11.1-16-11.8-23.8-10.8-.8.1-1.7.2-2.5.3-.8.1-1.6.3-2.2.9-.6.6-.9,1.5-.9,2.4.4,10.9.8,21.9.8,32.8v.9c0,.9,0,1.8,0,2.6v.7c0,1.1-.1,2.2-.3,3.3-.1,1.2.8,2.2,2,2.3l4.9.2c.5,0,1.2,0,1.5-.4.2-.3.2-.7.2-1-.1-4.6.4-9.1.6-13.6,0-.2,0-.4,0-.5,0-4.3,2.4-2.5,4.4-.6,1.9,1.8,3.5,3.8,5.1,5.9,1.6,2.1,3.3,3.9,5.3,5.5,1.3,1,3.7,4,5.5,3.8.8,0,1.4-.6,2-1.2.6-.6,2.5-1.8,2.7-2.6.2-.6-.8-2.4-1.4-2.4ZM373.9,269c-.4.7-1,1.5-1.5,2.1-1,1-1.8,1.2-2.9,2-.7.4-1.3.6-2.1.7-.5,0-1.3.2-2.1.2s-1,0-1.2-.2c-.5-.4-.6-1.5-.7-2.3v-.4c0-1.2.1-3.1.1-4.8s0-2.2-.3-2.9c0,0,0-.2,0-.3,0-.6.5-1.2,1.5-1.4,1.1-.2,2-.4,2.9-.4s2.2.2,3.7.9c1,.4,2.1,1.6,2.6,2.6.2.5.4,1.5.4,2.4s0,1.5-.4,1.8Z"/>
    <path class="st0" d="M425.1,279.5c0-3.1-2.6-4.7-5.5-4.5-2,.1-3.9,0-5.9.2-.8,0-2.1,0-3.1.1-2.5.1-1.6,4.4-1.4,5.9.1.7.7,1.1,1.3,1.1,1.6-.1,3.3-.2,4.9-.4.2,0,.5,0,.7,0,.3.2.3.6.3.9,0,2-.1,3.9-.1,5.8,0,2.6-1.8,2.5-4.2,2.4-5.6,0-10.7-3.5-13.4-7.7-4.5-7,0-17.1,7.3-19.9,3.4-1.4,6.6-1.8,10.3-1.4,1.2.1,3.9,1,4.9.3.6-.4,1-1.1,1.3-1.7.5-1.2,1.5-3.8.7-5.2-.3-.5-.9-.9-1.5-1.1-5.7-2.3-14.6-1-20.2,1.3-4.6,1.8-8.5,5.3-10.9,9.6-3.3,6-3.6,14-.8,20.3,4.5,10.2,14.7,14.1,25.1,14.1.5,0,1,0,1.5,0,3,0,6.2-1.5,7.6-4.2,1.2-2.4.8-5.2.6-7.8s.3-5.3.3-8Z"/>
  </g>
  <g>
    <polygon class="st0" points="341.4 89.7 341.4 89.7 341.4 89.7 341.4 89.7 341.4 89.7"/>
    <path class="st0" d="M427.6,236.6c-.5-1.4-1-2.8-1.1-3-.6-1.6-1.4-3.6-2.6-6-1.2-2.3-2.7-4.9-4.4-7.9-5.8-10.1-11.6-20.1-20.2-34.1-.3-.5-.5-1-.8-1.5-1.2-2.2-3.1-4.4-4.3-6.7-.6-1.2-1.2-2.4-1.8-3.6-.7-1.3-1.4-2.5-2.1-3.7-1.5-2.5-3.1-4.9-4.7-7.4-.8-1.2-1.6-2.5-2.5-3.8-.8-1.3-1.7-2.6-2.5-4-3.1-5-6.3-10-9.5-15.2-3.2-5.2-6.4-10.5-9.5-15.8-3.1-5.4-6.2-10.8-9.1-16.3-2.1-3.9-4.3-7.8-6.6-11.6-1.9-3.1-4.6-5.7-6.7-8.7-2.5-3.5-4.9-7.1-7.4-10.6-5-7.2-10-14.4-14.6-21.8-1-1.7-2.4-3-3.5-4.8-.7-1.1-1.7-2.3-3.1-2.3-1.6,0-2.8,1.4-3.6,2.8-1,1.7-2.4,2.8-3.6,4.3-1.6,2.1-7.9,10.8-9.6,13.5-2.8,4.3-3.9,8.9-6.8,13.2-3.4,4.8-6.4,10.1-9.7,14.8-.9,1.3-1.7,2.5-2.5,3.9-3.4,5.3-6.5,11.1-9.7,17.1-1.6,3-3,6-4.5,8.8-.4.7-.7,1.4-1.1,2.1l-1.2,2.1-2.5,4.2c-.2.3-.2.4-.3.5l-.2.4-.4.7-.7,1.4c-.9,1.7-2.1,3.4-3.2,5.1-1.1,1.8-2.2,3.7-3.4,5.5-2.3,3.7-4.6,7.3-6.8,11-1,1.6-1.9,3.3-2.8,4.9-.5.8-.9,1.7-1.4,2.5l-1.3,2.5c-.8,1.6-1.7,3.2-2.6,4.8l-1.3,2.4-.9,2c-5.7,0-11.6.2-17.5.2.7-1.1,1.9-3.6,2.6-4.7,3.4-5.8,7.1-12,11-18.7,1.6-2.7,3.1-5.3,4.8-7.9,1.5-2.3,3.8-4.8,3.1-7.8-.1-.6-.4-1.2-.7-1.8-1.2-2.6-2.2-5.2-3.2-7.9-1.1-2.7-2.1-5.5-3.2-8.3-2.1-5.6-4.2-11.3-6.5-17-2.3-5.7-4.9-11.4-7.9-16.8-2.9-5.3-5.5-10.7-8.1-16.2l.3.5c-3.2-6.8-6.3-13.8-9.2-20.6-1.5-3.4-2.9-6.8-4.3-10.1-.7-1.6-1.4-3.3-2.1-4.9-.2-.4-.4-.8-.5-1.2l-.3-.6c0-.2-.2-.5-.4-.8l-.3-.5c-.1-.2-.2-.3-.3-.5-.2-.3-.4-.7-.5-1.1-1.3-2.8-2.2-6.1-3.6-9.1-.4-.8-.7-1.5-1.2-2.2-.2-.4-.4-.7-.7-1.1l-.4-.5c-.2-.2-.1-.2-.2-.4-.8-1.2-1.5-2.5-2.2-3.7-.7-1.2-1.4-2.4-2.1-3.5-.3-.6-.7-1.1-1-1.7-.3-.4-.5-.8-.8-1.2-1-1.5-2.2-2.7-3.4-4-.4-.5-1-.9-1.6-.9-.7,0-1.1.6-1.5,1.1-1.2,1.5-2.5,3-3.6,4.6-.2.2-.3.4-.5.6-.6.8-1.2,1.7-1.9,2.6-1.3,1.8-2.7,3.8-4.2,5.9-3,4.2-6.3,9-9.8,14.4-.9,1.3-1.7,2.7-2.6,4.1-.9,1.5-1.8,3.1-2.6,4.5-1.6,3-3.3,5.9-5.3,8.9v.2c-.1,0-.2,0-.2,0,0,0,0,0,0,0l-.3-.4-.4-.5c-3.5-4.1-7.9-7.7-11.8-11.5-1.2-1.1-2.7-2.4-4.2-1.8-.9.3-1.5,1.1-2,1.9-2.5,3.7-5.3,7.3-7.7,11-2.7,4.2-5.4,8.4-8.2,12.6-5.5,8.4-11,17-15.7,26.1-.6,1.2-1.2,2.3-1.7,3.5l-1.6,3.5-1.6,3.4-1.6,3.3c-2.2,4.4-4.5,8.8-7,13.1-4.9,8.7-10.2,17.1-15.5,25.6l-8,12.8c-2.7,4.3-5.3,8.6-7.8,12.9l-15.3,26c-1.3,2.2-2.6,4.3-3.8,6.5l-3.8,6.5-3.8,6.5-1.9,3.3-.2.4-.2.3c-.1.2-.3.4-.4.7-.3.5-.7,1-1,1.5-1.4,2-2.9,4.1-4.4,6.2-.7,1.1-1.4,2.2-2.1,3.4-.2.3-.3.6-.5.9l-.3.5-.2.4-.2.4c-.6,1.1-1,2.3-1.2,3.4-.2,1.1-.2,2.2.2,3.2.2.5.5,1,.8,1.4,0,0,.2.2.2.3,0,0,0,0,.2.1h.2c0,0,.8.4.8.4l1.5.7.8.3c.3.1.5.2.8.3.3,0,.6.1.9.2h.7c0,.1,1,.3,1,.3.7.1,1.3.2,2,.3.7,0,1.3.2,2,.2,1.3.1,2.6.3,3.9.3,6.4.4,12.8.4,19.1.2,3.2,0,6.3-.2,9.4-.3,1.6,0,3,0,4.6,0,1.6,0,3.1,0,4.7,0,6.2,0,12.5,0,18.6,0,3.1,0,6.2,0,9.2,0,1.5,0,3.1,0,4.6,0h1.4c.4,0,.9,0,1.3-.2h0c0,0,0,.2,0,.2h.1s.3,0,.3,0h1.1c0,0,1.1.1,1.1.1h1.1s1.9,0,1.9,0c13.4.1,26.9.2,40.3.2,26,0,52,0,77.9,0,6.3,0,12.6,0,19,0,2.4,0,5.5.4,8.3.1,21.4,0,42.9,0,64.3-.1h2.3c14.9,0,29.7,0,44.6.1,14.6,0,29.4,0,43.5,0,5.7,0,11.4-.1,17.1-.3,2.9,0,5.9-.4,8.7-.3,3.2.2,5.4-.2,4.1-3.9ZM205.2,178c-.9,1-1.5.6-2.7.6-1.2,0-2.4,0-3.6,0-.4,0-.9,0-1.3,0-18.4,0-36.7,0-55.1,0h-6.5c-1.7,0-4.8-.6-6.5,0-2.5,1-4.7,6.6-6.2,8.9-4.6,7.2-9.3,14.2-13.8,21.5l-4.9,7.9c-3,4.6-6,9.3-9.1,13.9-.7,1-1.4,2.7-2.3,3.5-1,.8-1.6.7-2.9.7,0,0-.1,0-.2,0-2.8,0-5.5,0-8.3,0-11.2,0-22.4,0-33.7.2-1.5,0-3,0-4.5,0-6,0-12.3,0-18.7-.2-3.2-.2-6.4-.4-9.7-.8-.8-.1-1.6-.2-2.4-.3-.4,0-.8-.1-1.2-.2l-.9-.2c-.3,0-.6-.2-.8-.2-.1,0-.3-.1-.3-.3,0-.1,0-.3,0-.4,0-.3.2-.5.4-.8l.4-.8c.2-.3.4-.7.6-1,.9-1.4,1.9-2.8,2.9-4.2,1-1.4,2.1-2.8,3.1-4.3.5-.7,1.1-1.5,1.6-2.3.1-.2.3-.4.4-.7l.3-.6.7-1.2c1.8-3.1,3.7-6.3,5.6-9.4,1.9-3.2,3.8-6.4,5.7-9.6,3.9-6.5,7.9-13,11.9-19.7,4-6.7,8.1-13.5,12.3-20.3,8.5-13.5,17.3-26.8,25.2-40.9,2-3.5,3.9-7.1,5.7-10.7.9-1.8,1.8-3.6,2.7-5.5l2.5-5.4c1.7-3.5,3.5-6.9,5.4-10.4,2.1-3.7,17.9-30.1,23.7-38.8.2-.3.4-.8.7-1,.5-.3,1.2,0,1.6.3,1.3,1.3,2.6,2.9,3.7,4.4,1.2,1.5,2.5,3.2,4,4.9.5.8,1.1,1.5,1.6,2.2.5.8,1.3,1.4,1.2,2.3,0,1-.6,2-1.1,2.8-.8,1.4-2,2.7-2.9,4.1-.8,1.1-1.5,2.4-1.6,3.8-.2,1.2.3,1.9,1,2.9.6.9,1.3,1.7,1.9,2.6,1.9,2.4,3.9,4.8,6,7,.7.7,4.9,5.1,5.6,2.3.2-.7,0-1.4-.3-2-1.1-2-2.3-3.9-3.4-5.9-1-1.7-2.4-3.3-3.6-4.9-.5-.7-1-1.4-1-2.2,0-.8.4-1.5.8-2.1,2.8-4.5,5.5-9.1,8.5-13.4l.4-.7c.3-.4.6-.9.8-1.3,1.1-1.8,2.2-3.6,3.2-5.4,1-1.8,1.9-3.6,2.9-5.3.2-.4.5-.8.7-1.2l.8-1.3,1.6-2.6c2.1-3.4,4.3-6.8,6.5-10.2,1.4-2.1,2.8-4.3,4.2-6.5.7-1.1,1.4-2.2,2.1-3.3.5-.9.9-2.2,1.7-2.8,1.4-1.2,1.8.3,2.3,1.2.7,1.3,1.6,2.6,2.3,4,1.5,2.9,3,5.9,4.4,8.8,1.4,2.7,2.5,5.6,4,8.2l.3.5c0,.1,0,0,0,0,0,0,0,0,0,0l.4.9.8,1.8,3.1,7.2c2.1,4.8,4.2,9.7,6.2,14.5,4.2,9.7,8.6,19.4,13.6,28.8l1.8,3.4c.6,1.1,1.2,2.3,1.7,3.5,1.1,2.3,2.2,4.7,3.2,7.1,2,4.8,3.9,9.6,5.7,14.5,1.4,3.7,2.8,7.4,4.1,11,.6,1.5,1.1,3,1.6,4.5.5,1.6,1.6,2.8,1.7,4.6.1,2.1-.4,3.9-1.4,5.6-1.2,2.1-2.4,4.1-3.6,6.2-2.4,4.1-4.8,8.3-7.2,12.4-2,3.5-4,6.9-6,10.4-.9,1.6-1.7,3.7-3,5ZM362.6,178.6c1.1-1.7,2.2-3.4,3.3-5.1.3-.5,2.9-2.9,2.9-3.3,0-1.1-3.3-3.3-4.1-3.9-3-2.6-6-5.2-9-7.7-1.3-1.1-2.6-2.2-4-3.2-.6-.5-1.7-1.4-2.6-1.4-.9,0-1.9,1.1-2,2,0,.7.5,1.3,1,1.9,1.5,1.7,3.4,3.4,4.7,5.3,1.1,1.6,2.1,3,3.5,4.4.9,1,1.8,1.9,2.8,2.8l.4.3.2.2c0,0,0,0,0,0,0,0,0,0,0,0,0,0,0,0,0,0,0,0-.1.2-.1.2l-.3.4c-1.5,2.3-2.8,4.6-4,7-.9,0-1.8,0-2.6,0h.3c-1.8,0-3.5,0-5.3,0-8.8,0-17.6.1-26.4.1-4.4,0-8.8,0-13.2-.1-2.2,0-3-.2-5.2-.2-1.2,0-3.2,0-4.2.9-.3.3-.5.7-.7,1-.7,1.3-1.4,2.6-2,4-1.8,3.9-4.6,7.7-6.8,11.4-2.3,3.8-4.5,7.6-6.8,11.4-4.5,7.6-9.1,15.2-13.6,22.8-.7,1.2-1.6,3.2-2.8,4.1-.8.6-3.2.3-4.1.3-1.8,0-3.6,0-5.4-.1-.6,0-7-.3-7.2,0,3-6,7.7-11.9,11.1-17.7,3.8-6.6,7-13.6,11.1-20,0,0,0-.1.1-.2,1.1-1.6,2.4-3.7,4-6.1.8-1.2,1.7-2.6,2.6-4,.2-.4.5-.7.7-1.1.3-.3.5-.7.8-1.1.8-1.1,2.7-3,2.4-4.5-.3-1.8-3.9-1.1-5.1-1.1-12.8,0-25.5-.1-38.3,0,0,0,0-1.6,0-1.6.8-1.4,1.5-2.8,2.3-4.2l1.3-2.4c.4-.8.9-1.6,1.3-2.4.9-1.6,1.8-3.2,2.7-4.7,3.6-6.1,7.5-12.1,11.3-18.4,0,0,0,0,.1-.1h.1c0-.1,0-.2,0-.2l.2-.2v-.2c.1,0,.3-.3.3-.3.2-.3.4-.6.6-.9.3-.6.6-1.1.9-1.6.5-.9,1-1.9,1.5-2.8l2.1-3.6c.7-1.2,1.4-2.4,2.1-3.6,1.3-2.5,2.6-5,3.8-7.4.6-1.2,1.2-2.4,1.9-3.6l2-3.6c1.3-2.4,2.6-4.8,4-7.1,1.3-2.3,2.7-4.7,4.2-6.9,4.5-6.9,8.9-14.1,12.9-21.4,2.4-4.3,9.9-17.8,12.8-21.2.5-.6,1.1-1.3,1.9-1.3,1.8,0,3.7,3.3,4.6,4.5,1.7,2.3,3.5,4.6,5.2,6.9,9.1,12.1,17.2,24.6,25.3,37.4,2.1,3.3,4.5,6,6.4,9.5,2.3,4.1,4.7,8.3,7.1,12.3,4.5,7.7,9.1,15.1,13.6,22.2,2.3,3.6,4.4,7.1,6.7,10.6,2.3,3.5,4.6,6.8,6.6,10.1,1,1.7,2,3.3,2.9,5,.2.4.4.8.6,1.2-8.3,0-16.9,0-25.5,0Z"/>
  </g>
</svg>