<?xml version="1.0" encoding="UTF-8" standalone="no"?>
<svg
   xmlns:dc="http://purl.org/dc/elements/1.1/"
   xmlns:cc="http://creativecommons.org/ns#"
   xmlns:rdf="http://www.w3.org/1999/02/22-rdf-syntax-ns#"
   xmlns:svg="http://www.w3.org/2000/svg"
   xmlns="http://www.w3.org/2000/svg"
   viewBox="0 0 319.38666 151.18134"
   height="151.18134"
   width="319.38666"
   xml:space="preserve"
   id="svg2"
   version="1.1"><metadata
     id="metadata8"><rdf:RDF><cc:Work
         rdf:about=""><dc:format>image/svg+xml</dc:format><dc:type
           rdf:resource="http://purl.org/dc/dcmitype/StillImage" /></cc:Work></rdf:RDF></metadata><defs
     id="defs6"><clipPath
       id="clipPath20"
       clipPathUnits="userSpaceOnUse"><path
         id="path18"
         d="M 0,113.386 H 239.54 V 0 H 0 Z" /></clipPath><clipPath
       id="clipPath56"
       clipPathUnits="userSpaceOnUse"><path
         id="path54"
         d="M 0,113.386 H 239.54 V 0 H 0 Z" /></clipPath></defs><g
     transform="matrix(1.3333333,0,0,-1.3333333,0,151.18133)"
     id="g10"><path
       id="path12"
       style="fill:#ffffff;fill-opacity:1;fill-rule:nonzero;stroke:none"
       d="M 0,0 H 239.54 V 113.386 H 0 Z" /><g
       id="g14"><g
         clip-path="url(#clipPath20)"
         id="g16"><g
           transform="translate(39.3899,16.9073)"
           id="g22"><path
             id="path24"
             style="fill:#231f20;fill-opacity:1;fill-rule:nonzero;stroke:none"
             d="M 0,0 H -1.283 V 3.163 H 0 C 1.171,3.163 1.806,2.541 1.806,1.582 1.806,0.623 1.171,0 0,0 m -2.329,-4.558 h 1.046 v 3.562 h 0.81 l 2.354,-3.562 h 1.258 l -2.417,3.649 c 0.249,0.037 2.13,0.423 2.13,2.491 0,1.557 -1.183,2.578 -2.914,2.578 H -2.329 Z M 7.498,1.345 C 5.766,1.345 4.621,0 4.621,-1.681 c 0,-1.707 1.258,-3.027 3.001,-3.027 1.52,0 2.392,1.133 2.392,1.133 l -0.66,0.686 c 0,0 -0.598,-0.847 -1.732,-0.847 -1.083,0 -1.918,0.809 -1.98,1.681 h 4.646 c 0.012,0.137 0.012,0.224 0.012,0.336 0,1.856 -1.196,3.064 -2.802,3.064 M 5.667,-1.183 c 0.075,0.598 0.585,1.557 1.831,1.557 1.158,0 1.743,-0.91 1.781,-1.557 z m 10.761,-3.45 c 0,-1.295 -0.76,-1.968 -1.98,-1.968 -1.184,0 -1.881,0.909 -1.881,0.909 l -0.635,-0.785 c 0,0 0.934,-1.095 2.516,-1.095 1.668,0 3.026,0.996 3.026,2.989 V 1.196 H 16.515 V 0.361 c 0,0 -0.561,0.984 -1.943,0.984 -1.557,0 -2.79,-1.333 -2.79,-3.026 0,-1.694 1.233,-3.027 2.79,-3.027 1.059,0 1.657,0.61 1.856,0.872 z m 0,1.868 c 0,0 -0.548,-0.971 -1.694,-0.971 -1.171,0 -1.906,0.921 -1.906,2.055 0,1.133 0.735,2.055 1.906,2.055 1.133,0 1.694,-0.972 1.694,-0.972 z m 3.511,-1.793 h 1.046 v 5.754 h -1.046 z m -0.186,7.597 c 0,-0.386 0.324,-0.71 0.71,-0.71 0.386,0 0.71,0.324 0.71,0.71 0,0.386 -0.324,0.71 -0.71,0.71 -0.386,0 -0.71,-0.324 -0.71,-0.71 m 6.264,-1.694 c -1.693,0 -2.964,-1.333 -2.964,-3.026 0,-1.694 1.271,-3.027 2.964,-3.027 1.694,0 2.965,1.333 2.965,3.027 0,1.693 -1.271,3.026 -2.965,3.026 m 0,-5.081 c -1.158,0 -1.918,0.921 -1.918,2.055 0,1.133 0.76,2.055 1.918,2.055 1.159,0 1.919,-0.922 1.919,-2.055 0,-1.134 -0.76,-2.055 -1.919,-2.055 m 7.585,5.081 c -1.245,0 -1.768,-0.959 -1.768,-0.959 v 0.81 h -0.972 v -5.754 h 1.047 v 3.96 c 0,0 0.498,0.972 1.432,0.972 0.772,0 1.382,-0.424 1.382,-1.408 v -3.524 h 1.047 v 3.699 c 0,1.419 -1.022,2.204 -2.168,2.204 m 6.925,0 C 38.796,1.345 37.65,0 37.65,-1.681 c 0,-1.707 1.258,-3.027 3.002,-3.027 1.519,0 2.391,1.133 2.391,1.133 l -0.66,0.686 c 0,0 -0.598,-0.847 -1.731,-0.847 -1.084,0 -1.918,0.809 -1.98,1.681 h 4.645 c 0.013,0.137 0.013,0.224 0.013,0.336 0,1.856 -1.196,3.064 -2.803,3.064 m -1.831,-2.528 c 0.075,0.598 0.586,1.557 1.831,1.557 1.159,0 1.744,-0.91 1.781,-1.557 z m 9.254,2.528 c -1.246,0 -1.769,-0.959 -1.769,-0.959 v 0.81 H 45.21 v -5.754 h 1.046 v 3.96 c 0,0 0.498,0.972 1.432,0.972 0.772,0 1.383,-0.424 1.383,-1.408 v -3.524 h 1.046 v 3.699 c 0,1.419 -1.021,2.204 -2.167,2.204 m 10.786,-6.053 c 1.245,0 1.768,1.034 1.768,1.034 v -0.884 h 0.972 V 1.196 H 60.429 V -2.79 c 0,0 -0.46,-0.946 -1.432,-0.946 -0.772,0 -1.382,0.423 -1.382,1.407 v 3.525 h -1.047 v -3.699 c 0,-1.42 1.022,-2.205 2.168,-2.205 m 7.759,6.053 c -1.246,0 -1.769,-0.959 -1.769,-0.959 v 0.81 h -0.971 v -5.754 h 1.046 v 3.96 c 0,0 0.498,0.972 1.432,0.972 0.773,0 1.383,-0.424 1.383,-1.408 v -3.524 h 1.046 v 3.699 c 0,1.419 -1.021,2.204 -2.167,2.204 m 6.838,0 c -1.557,0 -2.79,-1.333 -2.79,-3.026 0,-1.694 1.233,-3.027 2.79,-3.027 1.382,0 1.942,0.984 1.942,0.984 v -0.834 h 0.96 V 4.857 H 75.188 V 0.486 c 0,0 -0.585,0.859 -1.855,0.859 m 1.855,-4.085 c 0,0 -0.548,-0.996 -1.694,-0.996 -1.17,0 -1.905,0.921 -1.905,2.055 0,1.133 0.76,2.055 1.905,2.055 1.146,0 1.694,-0.997 1.694,-0.997 z m 18.707,6.9 H 92.787 L 90.557,-1.881 88.44,4.16 H 87.68 L 85.538,-1.881 83.334,4.16 h -1.171 l 3.35,-8.968 2.516,6.863 2.504,-6.863 z m 3.089,-2.815 c -1.258,0 -2.155,-0.585 -2.155,-0.585 l 0.436,-0.872 c 0,0 0.847,0.486 1.719,0.486 0.461,0 1.457,-0.162 1.457,-1.358 v -0.311 c 0,0 -0.672,0.473 -1.731,0.473 -1.295,0 -2.279,-0.797 -2.279,-1.918 0,-1.246 1.108,-1.968 2.142,-1.968 1.308,0 1.956,0.984 1.956,0.984 v -0.834 h 0.959 v 3.786 c 0,1.071 -0.81,2.117 -2.504,2.117 m -0.187,-5.131 c -0.647,0 -1.32,0.299 -1.32,1.046 0,0.598 0.561,1.046 1.457,1.046 0.934,0 1.507,-0.411 1.507,-0.411 v -0.809 c 0,0 -0.622,-0.872 -1.644,-0.872 m 4.596,0.286 c 0,0 0.847,-1.208 2.466,-1.208 1.108,0 2.279,0.573 2.279,1.682 0,1.17 -0.934,1.581 -2.03,1.818 -0.947,0.199 -1.395,0.436 -1.395,0.872 0,0.373 0.361,0.735 1.096,0.735 0.872,0 1.445,-0.636 1.445,-0.636 l 0.685,0.71 c 0,0 -0.773,0.872 -2.13,0.872 -1.283,0 -2.118,-0.822 -2.118,-1.656 0,-1.084 0.872,-1.57 2.105,-1.819 0.885,-0.174 1.308,-0.423 1.308,-0.921 0,-0.461 -0.66,-0.71 -1.245,-0.71 -1.134,0 -1.744,0.934 -1.744,0.934 z m 6.352,0 c 0,0 0.846,-1.208 2.466,-1.208 1.108,0 2.279,0.573 2.279,1.682 0,1.17 -0.934,1.581 -2.03,1.818 -0.947,0.199 -1.395,0.436 -1.395,0.872 0,0.373 0.361,0.735 1.096,0.735 0.872,0 1.444,-0.636 1.444,-0.636 l 0.685,0.71 c 0,0 -0.772,0.872 -2.129,0.872 -1.283,0 -2.118,-0.822 -2.118,-1.656 0,-1.084 0.872,-1.57 2.105,-1.819 0.885,-0.174 1.308,-0.423 1.308,-0.921 0,-0.461 -0.66,-0.71 -1.245,-0.71 -1.134,0 -1.744,0.934 -1.744,0.934 z m 9.204,4.845 c -1.732,0 -2.877,-1.345 -2.877,-3.026 0,-1.707 1.257,-3.027 3.001,-3.027 1.52,0 2.391,1.133 2.391,1.133 l -0.66,0.686 c 0,0 -0.597,-0.847 -1.731,-0.847 -1.083,0 -1.918,0.809 -1.98,1.681 h 4.645 c 0.013,0.137 0.013,0.224 0.013,0.336 0,1.856 -1.196,3.064 -2.802,3.064 m -1.831,-2.528 c 0.074,0.598 0.585,1.557 1.831,1.557 1.158,0 1.743,-0.91 1.781,-1.557 z m 9.091,2.528 c -1.096,0 -1.606,-1.034 -1.606,-1.034 v 0.885 h -0.972 v -5.754 h 1.047 v 3.96 c 0,0 0.411,0.972 1.319,0.972 0.436,0 0.661,-0.125 0.661,-0.125 l 0.386,0.947 c 0,0 -0.361,0.149 -0.835,0.149 m 1.644,-0.149 2.628,-6.004 1.893,4.322 1.893,-4.322 2.628,6.004 h -1.071 l -1.532,-3.724 -1.532,3.724 h -0.709 l -1.52,-3.724 -1.544,3.724 z m 10.811,-5.754 h 1.046 v 5.754 h -1.046 z m -0.187,7.597 c 0,-0.386 0.324,-0.71 0.71,-0.71 0.386,0 0.71,0.324 0.71,0.71 0,0.386 -0.324,0.71 -0.71,0.71 -0.386,0 -0.71,-0.324 -0.71,-0.71 m 6.277,-1.694 c -1.096,0 -1.606,-1.034 -1.606,-1.034 v 0.885 h -0.972 v -5.754 h 1.046 v 3.96 c 0,0 0.411,0.972 1.321,0.972 0.436,0 0.66,-0.125 0.66,-0.125 l 0.386,0.947 c 0,0 -0.361,0.149 -0.835,0.149 m 1.844,-1.096 h 1.121 v -3.151 c 0,-1.27 0.909,-1.806 1.731,-1.806 0.336,0 0.697,0.075 1.195,0.349 l -0.386,0.859 c 0,0 -0.336,-0.236 -0.66,-0.236 -0.56,0 -0.834,0.323 -0.834,0.884 v 3.101 h 1.793 v 0.947 h -1.793 v 1.756 h -1.046 V 1.196 h -1.121 z M 150.09,-3.5 c 0,0 0.847,-1.208 2.466,-1.208 1.109,0 2.279,0.573 2.279,1.682 0,1.17 -0.934,1.581 -2.03,1.818 -0.946,0.199 -1.395,0.436 -1.395,0.872 0,0.373 0.362,0.735 1.096,0.735 0.872,0 1.445,-0.636 1.445,-0.636 l 0.685,0.71 c 0,0 -0.772,0.872 -2.13,0.872 -1.282,0 -2.117,-0.822 -2.117,-1.656 0,-1.084 0.872,-1.57 2.105,-1.819 0.884,-0.174 1.308,-0.423 1.308,-0.921 0,-0.461 -0.66,-0.71 -1.246,-0.71 -1.133,0 -1.743,0.934 -1.743,0.934 z m 10.972,0.586 c 0,0 -0.56,-0.822 -1.681,-0.822 -1.158,0 -1.918,0.921 -1.918,2.055 0,1.133 0.76,2.055 1.918,2.055 1.021,0 1.582,-0.698 1.582,-0.698 l 0.71,0.635 c 0,0 -0.822,1.034 -2.292,1.034 -1.694,0 -2.964,-1.345 -2.964,-3.026 0,-1.694 1.27,-3.027 2.964,-3.027 1.519,0 2.354,1.109 2.354,1.109 z m 5.343,4.259 c -0.996,0 -1.519,-0.598 -1.693,-0.847 v 4.359 h -1.047 v -9.415 h 1.047 v 3.96 c 0,0 0.498,0.972 1.432,0.972 0.772,0 1.382,-0.424 1.382,-1.408 v -3.524 h 1.046 v 3.699 c 0,1.419 -1.021,2.204 -2.167,2.204 m 6.726,0 c -1.258,0 -2.155,-0.585 -2.155,-0.585 l 0.436,-0.872 c 0,0 0.847,0.486 1.719,0.486 0.461,0 1.457,-0.162 1.457,-1.358 v -0.311 c 0,0 -0.672,0.473 -1.731,0.473 -1.295,0 -2.279,-0.797 -2.279,-1.918 0,-1.246 1.108,-1.968 2.142,-1.968 1.308,0 1.955,0.984 1.955,0.984 v -0.834 h 0.959 v 3.786 c 0,1.071 -0.809,2.117 -2.503,2.117 m -0.187,-5.131 c -0.647,0 -1.32,0.299 -1.32,1.046 0,0.598 0.56,1.046 1.457,1.046 0.934,0 1.507,-0.411 1.507,-0.411 v -0.809 c 0,0 -0.623,-0.872 -1.644,-0.872 m 4.422,4.035 h 1.195 v -4.807 h 1.046 v 4.807 h 1.495 v 0.947 h -1.495 v 1.918 c 0,0.56 0.312,0.921 0.872,0.921 0.324,0 0.673,-0.224 0.673,-0.224 l 0.386,0.86 c -0.498,0.274 -0.872,0.336 -1.208,0.336 -0.822,0 -1.769,-0.61 -1.769,-1.831 v -1.98 h -1.195 z m 5.006,0 h 1.121 v -3.151 c 0,-1.27 0.909,-1.806 1.731,-1.806 0.336,0 0.698,0.075 1.196,0.349 l -0.386,0.859 c 0,0 -0.337,-0.236 -0.661,-0.236 -0.56,0 -0.834,0.323 -0.834,0.884 v 3.101 h 1.794 v 0.947 h -1.794 v 1.756 h -1.046 V 1.196 h -1.121 z" /></g><g
           transform="translate(38.107,36.6357)"
           id="g26"><path
             id="path28"
             style="fill:#231f20;fill-opacity:1;fill-rule:nonzero;stroke:none"
             d="M 0,0 H -1.046 V -8.718 H 0 v 4.159 L 3.849,-8.718 H 5.268 L 1.171,-4.26 4.857,0 H 3.525 L 0,-4.098 Z M 7.037,-8.718 H 8.083 V 0.698 H 7.037 Z m 3.798,0 h 1.046 v 5.754 h -1.046 z m -0.187,7.597 c 0,-0.386 0.324,-0.71 0.71,-0.71 0.386,0 0.71,0.324 0.71,0.71 0,0.386 -0.324,0.71 -0.71,0.71 -0.386,0 -0.71,-0.324 -0.71,-0.71 m 9.84,-1.694 c -1.258,0 -1.719,-1.071 -1.719,-1.071 0,0 -0.361,1.071 -1.794,1.071 -1.17,0 -1.594,-0.996 -1.594,-0.996 v 0.847 H 14.41 v -5.754 h 1.046 v 4.01 c 0,0 0.386,0.922 1.233,0.922 0.747,0 1.233,-0.461 1.233,-1.395 v -3.537 h 1.046 v 4.01 c 0,0 0.374,0.922 1.233,0.922 0.747,0 1.233,-0.461 1.233,-1.395 v -3.537 h 1.046 v 3.699 c 0,1.42 -0.797,2.204 -1.992,2.204 m 6.613,0 c -1.258,0 -2.155,-0.585 -2.155,-0.585 l 0.436,-0.872 c 0,0 0.847,0.486 1.719,0.486 0.461,0 1.457,-0.162 1.457,-1.358 v -0.311 c 0,0 -0.672,0.473 -1.731,0.473 -1.295,0 -2.279,-0.797 -2.279,-1.918 0,-1.245 1.108,-1.968 2.142,-1.968 1.308,0 1.955,0.984 1.955,0.984 v -0.834 h 0.959 v 3.786 c 0,1.071 -0.809,2.117 -2.503,2.117 m -0.187,-5.131 c -0.647,0 -1.32,0.299 -1.32,1.046 0,0.598 0.561,1.046 1.457,1.046 0.934,0 1.507,-0.411 1.507,-0.411 v -0.809 c 0,0 -0.622,-0.872 -1.644,-0.872 m 4.646,1.768 h 3.325 v 0.996 H 31.56 Z m 11.682,-2.69 c 1.245,0 1.768,1.034 1.768,1.034 v -0.884 h 0.972 v 5.754 H 44.936 V -6.95 c 0,0 -0.461,-0.946 -1.433,-0.946 -0.772,0 -1.382,0.423 -1.382,1.407 v 3.525 h -1.046 v -3.699 c 0,-1.42 1.021,-2.205 2.167,-2.205 m 7.822,6.053 c -1.246,0 -1.769,-0.959 -1.769,-0.959 v 0.81 h -0.972 v -5.754 h 1.047 v 3.96 c 0,0 0.498,0.972 1.432,0.972 0.772,0 1.382,-0.424 1.382,-1.408 v -3.524 h 1.047 v 3.699 c 0,1.42 -1.022,2.204 -2.167,2.204 m 6.899,0 c -1.556,0 -2.789,-1.332 -2.789,-3.026 0,-1.694 1.233,-3.027 2.789,-3.027 1.383,0 1.943,0.984 1.943,0.984 v -0.834 h 0.959 v 9.415 h -1.046 v -4.371 c 0,0 -0.585,0.859 -1.856,0.859 M 59.819,-6.9 c 0,0 -0.548,-0.996 -1.694,-0.996 -1.17,0 -1.905,0.921 -1.905,2.055 0,1.133 0.759,2.055 1.905,2.055 1.146,0 1.694,-0.997 1.694,-0.997 z m 13.377,1.507 c 0,-1.407 -0.623,-2.478 -2.13,-2.478 -1.507,0 -2.13,1.071 -2.13,2.478 V 0 H 67.89 v -5.505 c 0,-1.98 1.183,-3.363 3.176,-3.363 1.993,0 3.176,1.383 3.176,3.363 V 0 h -1.046 z m 9.689,2.578 c -1.257,0 -1.718,-1.071 -1.718,-1.071 0,0 -0.362,1.071 -1.794,1.071 -1.171,0 -1.594,-0.996 -1.594,-0.996 v 0.847 h -0.971 v -5.754 h 1.046 v 4.01 c 0,0 0.386,0.922 1.233,0.922 0.747,0 1.233,-0.461 1.233,-1.395 v -3.537 h 1.046 v 4.01 c 0,0 0.374,0.922 1.233,0.922 0.747,0 1.233,-0.461 1.233,-1.395 v -3.537 h 1.046 v 3.699 c 0,1.42 -0.797,2.204 -1.993,2.204 m 3.637,-0.149 2.628,-6.003 1.893,4.321 1.893,-4.321 2.628,6.003 h -1.071 l -1.532,-3.724 -1.532,3.724 h -0.71 l -1.52,-3.724 -1.544,3.724 z m 13.065,0.149 c -1.732,0 -2.877,-1.345 -2.877,-3.026 0,-1.707 1.258,-3.027 3.001,-3.027 1.52,0 2.392,1.134 2.392,1.134 l -0.661,0.685 c 0,0 -0.597,-0.847 -1.731,-0.847 -1.083,0 -1.918,0.809 -1.98,1.681 h 4.646 c 0.012,0.137 0.012,0.224 0.012,0.336 0,1.856 -1.196,3.064 -2.802,3.064 m -1.831,-2.528 c 0.075,0.598 0.585,1.557 1.831,1.557 1.158,0 1.743,-0.91 1.781,-1.557 z m 6.8,-3.375 h 1.046 v 9.416 h -1.046 z m 3.114,4.807 h 1.121 v -3.151 c 0,-1.27 0.909,-1.806 1.731,-1.806 0.336,0 0.698,0.075 1.196,0.349 l -0.386,0.859 c 0,0 -0.337,-0.236 -0.661,-0.236 -0.56,0 -0.834,0.323 -0.834,0.884 v 3.101 h 1.793 v 0.947 h -1.793 v 1.756 h -1.046 v -1.756 h -1.121 z m 5.554,-3.749 c 0,0 0.847,-1.208 2.466,-1.208 1.109,0 2.279,0.573 2.279,1.682 0,1.17 -0.934,1.581 -2.03,1.818 -0.946,0.199 -1.395,0.436 -1.395,0.872 0,0.373 0.362,0.735 1.096,0.735 0.872,0 1.445,-0.636 1.445,-0.636 l 0.685,0.71 c 0,0 -0.772,0.872 -2.13,0.872 -1.282,0 -2.117,-0.822 -2.117,-1.656 0,-1.084 0.872,-1.57 2.105,-1.819 0.884,-0.174 1.308,-0.423 1.308,-0.921 0,-0.461 -0.66,-0.71 -1.246,-0.71 -1.133,0 -1.744,0.934 -1.744,0.934 z m 11.035,0.586 c 0,0 -0.56,-0.822 -1.681,-0.822 -1.159,0 -1.918,0.921 -1.918,2.055 0,1.133 0.759,2.055 1.918,2.055 1.021,0 1.581,-0.698 1.581,-0.698 l 0.71,0.636 c 0,0 -0.822,1.033 -2.291,1.033 -1.694,0 -2.965,-1.345 -2.965,-3.026 0,-1.694 1.271,-3.027 2.965,-3.027 1.519,0 2.354,1.109 2.354,1.109 z m 5.405,4.259 c -0.996,0 -1.519,-0.598 -1.693,-0.847 v 4.359 h -1.047 v -9.415 h 1.047 v 3.96 c 0,0 0.498,0.972 1.432,0.972 0.772,0 1.382,-0.424 1.382,-1.408 v -3.524 h 1.047 v 3.699 c 0,1.42 -1.022,2.204 -2.168,2.204 m 6.676,-6.053 c 1.246,0 1.769,1.034 1.769,1.034 v -0.884 h 0.971 v 5.754 h -1.046 V -6.95 c 0,0 -0.461,-0.946 -1.432,-0.946 -0.772,0 -1.383,0.423 -1.383,1.407 v 3.525 h -1.046 v -3.699 c 0,-1.42 1.021,-2.205 2.167,-2.205 m 4.583,4.957 h 1.121 v -3.151 c 0,-1.27 0.909,-1.806 1.731,-1.806 0.336,0 0.698,0.075 1.196,0.349 l -0.386,0.859 c 0,0 -0.336,-0.236 -0.66,-0.236 -0.561,0 -0.835,0.323 -0.835,0.884 v 3.101 h 1.794 v 0.947 h -1.794 v 1.756 h -1.046 v -1.756 h -1.121 z m 5.729,0.947 v -0.972 h 3.126 l -3.3,-4.782 h 5.007 v 0.971 h -3.164 l 3.301,4.783 z m 6.302,-7.523 0.885,-0.311 1.071,2.902 -0.947,0.323 z" /></g><g
           transform="translate(37.0608,43.4858)"
           id="g30"><path
             id="path32"
             style="fill:#231f20;fill-opacity:1;fill-rule:nonzero;stroke:none"
             d="M 0,0 H 4.957 V 0.996 H 1.046 V 8.718 H 0 Z M 8.88,5.903 C 7.622,5.903 6.726,5.318 6.726,5.318 L 7.162,4.446 c 0,0 0.846,0.486 1.718,0.486 0.461,0 1.458,-0.162 1.458,-1.358 V 3.263 c 0,0 -0.673,0.473 -1.732,0.473 -1.295,0 -2.279,-0.797 -2.279,-1.918 0,-1.245 1.109,-1.967 2.142,-1.967 1.308,0 1.956,0.983 1.956,0.983 V 0 h 0.959 v 3.786 c 0,1.071 -0.81,2.117 -2.504,2.117 M 8.693,0.772 c -0.647,0 -1.32,0.299 -1.32,1.046 0,0.598 0.561,1.047 1.457,1.047 0.935,0 1.508,-0.411 1.508,-0.411 v -0.81 c 0,0 -0.623,-0.872 -1.645,-0.872 m 7.772,5.131 c -1.245,0 -1.768,-0.958 -1.768,-0.958 V 5.754 H 13.725 V 0 h 1.046 v 3.961 c 0,0 0.499,0.971 1.433,0.971 0.772,0 1.382,-0.423 1.382,-1.407 V 0 h 1.046 v 3.699 c 0,1.42 -1.021,2.204 -2.167,2.204 m 6.9,0 c -1.557,0 -2.79,-1.332 -2.79,-3.026 0,-1.694 1.233,-3.026 2.79,-3.026 1.382,0 1.943,0.983 1.943,0.983 V 0 h 0.959 V 9.416 H 25.22 V 5.044 c 0,0 -0.585,0.859 -1.855,0.859 M 25.22,1.818 c 0,0 -0.548,-0.996 -1.693,-0.996 -1.171,0 -1.906,0.922 -1.906,2.055 0,1.133 0.76,2.055 1.906,2.055 1.145,0 1.693,-0.996 1.693,-0.996 z m 3.226,0.723 h 3.325 v 0.996 h -3.325 z m 11.683,-2.69 c 1.245,0 1.768,1.033 1.768,1.033 V 0 h 0.972 V 5.754 H 41.823 V 1.769 c 0,0 -0.461,-0.947 -1.433,-0.947 -0.772,0 -1.382,0.423 -1.382,1.407 V 5.754 H 37.962 V 2.055 c 0,-1.42 1.021,-2.204 2.167,-2.204 m 7.821,6.052 c -1.245,0 -1.768,-0.958 -1.768,-0.958 V 5.754 H 45.21 V 0 h 1.047 v 3.961 c 0,0 0.498,0.971 1.432,0.971 0.772,0 1.382,-0.423 1.382,-1.407 V 0 h 1.046 v 3.699 c 0,1.42 -1.021,2.204 -2.167,2.204 m 6.9,0 c -1.557,0 -2.79,-1.332 -2.79,-3.026 0,-1.694 1.233,-3.026 2.79,-3.026 1.383,0 1.943,0.983 1.943,0.983 V 0 h 0.959 V 9.416 H 56.706 V 5.044 c 0,0 -0.585,0.859 -1.856,0.859 m 1.856,-4.085 c 0,0 -0.548,-0.996 -1.694,-0.996 -1.171,0 -1.905,0.922 -1.905,2.055 0,1.133 0.759,2.055 1.905,2.055 1.146,0 1.694,-0.996 1.694,-0.996 z m 9.116,5.904 h 3.874 v 0.996 h -4.92 V 0 h 1.046 v 3.973 h 3.625 v 0.996 h -3.625 z m 8.27,-1.819 c -1.694,0 -2.964,-1.332 -2.964,-3.026 0,-1.694 1.27,-3.026 2.964,-3.026 1.694,0 2.965,1.332 2.965,3.026 0,1.694 -1.271,3.026 -2.965,3.026 m 0,-5.081 c -1.158,0 -1.918,0.922 -1.918,2.055 0,1.133 0.76,2.055 1.918,2.055 1.159,0 1.918,-0.922 1.918,-2.055 0,-1.133 -0.759,-2.055 -1.918,-2.055 m 7.486,5.081 C 80.482,5.903 79.971,4.87 79.971,4.87 V 5.754 H 79 V 0 h 1.046 v 3.961 c 0,0 0.411,0.971 1.32,0.971 0.436,0 0.66,-0.124 0.66,-0.124 l 0.386,0.946 c 0,0 -0.361,0.149 -0.834,0.149 m 1.88,-4.844 c 0,0 0.847,-1.208 2.466,-1.208 1.109,0 2.28,0.572 2.28,1.681 0,1.171 -0.934,1.582 -2.031,1.818 -0.946,0.2 -1.394,0.436 -1.394,0.872 0,0.374 0.361,0.735 1.096,0.735 0.871,0 1.444,-0.635 1.444,-0.635 l 0.685,0.71 c 0,0 -0.772,0.871 -2.129,0.871 -1.283,0 -2.118,-0.821 -2.118,-1.656 0,-1.084 0.872,-1.569 2.105,-1.818 0.884,-0.175 1.308,-0.424 1.308,-0.922 0,-0.461 -0.66,-0.71 -1.246,-0.71 -1.133,0 -1.743,0.934 -1.743,0.934 z m 6.29,3.749 h 1.121 V 1.657 c 0,-1.271 0.909,-1.806 1.731,-1.806 0.336,0 0.698,0.074 1.196,0.348 l -0.386,0.86 c 0,0 -0.337,-0.237 -0.66,-0.237 -0.561,0 -0.835,0.324 -0.835,0.884 v 3.102 h 1.794 V 5.754 H 91.915 V 7.51 H 90.869 V 5.754 h -1.121 z m 5.231,0.946 2.628,-6.003 1.893,4.322 1.893,-4.322 2.628,6.003 H 102.95 L 101.418,2.03 99.886,5.754 h -0.71 L 97.657,2.03 96.112,5.754 Z M 105.852,0 h 1.046 v 5.754 h -1.046 z m -0.187,7.597 c 0,-0.386 0.324,-0.709 0.71,-0.709 0.386,0 0.71,0.323 0.71,0.709 0,0.386 -0.324,0.71 -0.71,0.71 -0.386,0 -0.71,-0.324 -0.71,-0.71 m 6.339,-1.694 c -1.096,0 -1.607,-1.033 -1.607,-1.033 v 0.884 h -0.971 V 0 h 1.046 v 3.961 c 0,0 0.411,0.971 1.32,0.971 0.436,0 0.66,-0.124 0.66,-0.124 l 0.387,0.946 c 0,0 -0.362,0.149 -0.835,0.149 m 1.906,-1.095 h 1.121 V 1.657 c 0,-1.271 0.909,-1.806 1.731,-1.806 0.336,0 0.697,0.074 1.195,0.348 l -0.386,0.86 c 0,0 -0.336,-0.237 -0.66,-0.237 -0.56,0 -0.834,0.324 -0.834,0.884 v 3.102 h 1.793 v 0.946 h -1.793 V 7.51 h -1.046 V 5.754 h -1.121 z m 5.555,-3.749 c 0,0 0.846,-1.208 2.466,-1.208 1.108,0 2.279,0.572 2.279,1.681 0,1.171 -0.934,1.582 -2.03,1.818 -0.947,0.2 -1.395,0.436 -1.395,0.872 0,0.374 0.361,0.735 1.096,0.735 0.872,0 1.444,-0.635 1.444,-0.635 l 0.686,0.71 c 0,0 -0.773,0.871 -2.13,0.871 -1.283,0 -2.118,-0.821 -2.118,-1.656 0,-1.084 0.872,-1.569 2.105,-1.818 0.885,-0.175 1.308,-0.424 1.308,-0.922 0,-0.461 -0.66,-0.71 -1.245,-0.71 -1.134,0 -1.744,0.934 -1.744,0.934 z m 11.034,0.585 c 0,0 -0.56,-0.822 -1.681,-0.822 -1.158,0 -1.918,0.922 -1.918,2.055 0,1.133 0.76,2.055 1.918,2.055 1.021,0 1.582,-0.697 1.582,-0.697 l 0.71,0.635 c 0,0 -0.822,1.033 -2.292,1.033 -1.694,0 -2.964,-1.345 -2.964,-3.026 0,-1.694 1.27,-3.026 2.964,-3.026 1.519,0 2.354,1.108 2.354,1.108 z m 5.405,4.259 c -0.996,0 -1.519,-0.597 -1.694,-0.846 v 4.359 h -1.046 V 0 h 1.046 v 3.961 c 0,0 0.499,0.971 1.433,0.971 0.772,0 1.382,-0.423 1.382,-1.407 V 0 h 1.046 v 3.699 c 0,1.42 -1.021,2.204 -2.167,2.204 m 6.788,0 c -1.258,0 -2.155,-0.585 -2.155,-0.585 l 0.436,-0.872 c 0,0 0.847,0.486 1.719,0.486 0.461,0 1.457,-0.162 1.457,-1.358 V 3.263 c 0,0 -0.672,0.473 -1.731,0.473 -1.295,0 -2.279,-0.797 -2.279,-1.918 0,-1.245 1.108,-1.967 2.142,-1.967 1.308,0 1.955,0.983 1.955,0.983 V 0 h 0.96 v 3.786 c 0,1.071 -0.81,2.117 -2.504,2.117 m -0.187,-5.131 c -0.647,0 -1.32,0.299 -1.32,1.046 0,0.598 0.561,1.047 1.457,1.047 0.934,0 1.507,-0.411 1.507,-0.411 v -0.81 c 0,0 -0.622,-0.872 -1.644,-0.872 m 4.484,4.036 h 1.196 V 0 h 1.046 v 4.808 h 1.494 v 0.946 h -1.494 v 1.918 c 0,0.561 0.311,0.922 0.872,0.922 0.324,0 0.672,-0.224 0.672,-0.224 l 0.386,0.859 c -0.498,0.274 -0.871,0.336 -1.208,0.336 -0.822,0 -1.768,-0.61 -1.768,-1.831 v -1.98 h -1.196 z m 5.069,0 h 1.121 V 1.657 c 0,-1.271 0.909,-1.806 1.731,-1.806 0.336,0 0.698,0.074 1.196,0.348 l -0.386,0.86 c 0,0 -0.337,-0.237 -0.66,-0.237 -0.561,0 -0.835,0.324 -0.835,0.884 v 3.102 h 1.794 v 0.946 h -1.794 V 7.51 h -1.046 V 5.754 h -1.121 z m 5.43,-6.577 0.885,-0.311 1.071,2.902 -0.947,0.324 z" /></g><g
           transform="translate(37.0608,59.0542)"
           id="g34"><path
             id="path36"
             style="fill:#231f20;fill-opacity:1;fill-rule:nonzero;stroke:none"
             d="m 0,0 h 2.728 c 1.718,0 2.839,0.971 2.839,2.491 0,1.731 -1.332,2.117 -1.457,2.142 0.125,0.025 0.984,0.523 0.984,1.706 0,1.458 -1.009,2.379 -2.802,2.379 H 0 Z M 2.728,0.996 H 1.046 v 2.99 h 1.682 c 1.245,0 1.793,-0.673 1.793,-1.495 0,-0.822 -0.548,-1.495 -1.793,-1.495 M 1.046,4.957 v 2.765 h 1.42 C 3.45,7.722 4.048,7.186 4.048,6.339 4.048,5.493 3.45,4.957 2.466,4.957 Z m 8.656,-5.106 c 1.246,0 1.769,1.033 1.769,1.033 V 0 h 0.971 V 5.754 H 11.396 V 1.769 c 0,0 -0.461,-0.947 -1.432,-0.947 -0.772,0 -1.383,0.423 -1.383,1.407 V 5.754 H 7.535 V 2.055 c 0,-1.42 1.021,-2.204 2.167,-2.204 m 7.821,6.053 c -1.245,0 -1.768,-0.959 -1.768,-0.959 V 5.754 H 14.783 V 0 h 1.047 v 3.961 c 0,0 0.498,0.971 1.432,0.971 0.772,0 1.382,-0.423 1.382,-1.407 V 0 h 1.046 v 3.699 c 0,1.42 -1.021,2.205 -2.167,2.205 m 6.9,0 c -1.557,0 -2.79,-1.333 -2.79,-3.027 0,-1.694 1.233,-3.026 2.79,-3.026 1.383,0 1.943,0.983 1.943,0.983 V 0 h 0.959 V 9.416 H 26.279 V 5.044 c 0,0 -0.585,0.86 -1.856,0.86 m 1.856,-4.086 c 0,0 -0.548,-0.996 -1.694,-0.996 -1.171,0 -1.905,0.922 -1.905,2.055 0,1.133 0.759,2.055 1.905,2.055 1.146,0 1.694,-0.996 1.694,-0.996 z m 6.09,4.086 c -1.731,0 -2.877,-1.346 -2.877,-3.027 0,-1.706 1.258,-3.026 3.002,-3.026 1.52,0 2.391,1.133 2.391,1.133 l -0.66,0.685 c 0,0 -0.598,-0.847 -1.731,-0.847 -1.084,0 -1.918,0.81 -1.98,1.681 h 4.645 c 0.013,0.137 0.013,0.225 0.013,0.337 0,1.855 -1.196,3.064 -2.803,3.064 m -1.83,-2.529 c 0.074,0.598 0.585,1.557 1.83,1.557 1.159,0 1.744,-0.909 1.782,-1.557 z m 6.202,-2.316 c 0,0 0.847,-1.208 2.466,-1.208 1.109,0 2.279,0.572 2.279,1.681 0,1.171 -0.934,1.582 -2.03,1.818 -0.946,0.2 -1.395,0.436 -1.395,0.872 0,0.374 0.361,0.735 1.096,0.735 0.872,0 1.445,-0.635 1.445,-0.635 l 0.685,0.71 c 0,0 -0.772,0.872 -2.13,0.872 -1.283,0 -2.117,-0.822 -2.117,-1.657 0,-1.084 0.872,-1.569 2.105,-1.818 0.884,-0.175 1.308,-0.424 1.308,-0.922 0,-0.461 -0.661,-0.71 -1.246,-0.71 -1.133,0 -1.744,0.934 -1.744,0.934 z m 12.866,4.845 c -1.258,0 -1.719,-1.072 -1.719,-1.072 0,0 -0.361,1.072 -1.793,1.072 C 44.924,5.904 44.5,4.907 44.5,4.907 V 5.754 H 43.529 V 0 h 1.046 v 4.01 c 0,0 0.386,0.922 1.233,0.922 0.747,0 1.233,-0.461 1.233,-1.395 V 0 h 1.046 v 4.01 c 0,0 0.374,0.922 1.233,0.922 0.748,0 1.233,-0.461 1.233,-1.395 V 0 H 51.6 v 3.699 c 0,1.42 -0.798,2.205 -1.993,2.205 M 54.127,0 h 1.046 v 5.754 h -1.046 z m -0.186,7.597 c 0,-0.386 0.323,-0.709 0.709,-0.709 0.387,0 0.71,0.323 0.71,0.709 0,0.386 -0.323,0.71 -0.71,0.71 -0.386,0 -0.709,-0.324 -0.709,-0.71 m 6.501,-1.693 c -1.246,0 -1.769,-0.959 -1.769,-0.959 V 5.754 H 57.702 V 0 h 1.046 v 3.961 c 0,0 0.498,0.971 1.432,0.971 0.773,0 1.383,-0.423 1.383,-1.407 V 0 h 1.046 v 3.699 c 0,1.42 -1.021,2.205 -2.167,2.205 M 65.137,0 h 1.046 v 5.754 h -1.046 z m -0.186,7.597 c 0,-0.386 0.323,-0.709 0.71,-0.709 0.386,0 0.709,0.323 0.709,0.709 0,0.386 -0.323,0.71 -0.709,0.71 -0.387,0 -0.71,-0.324 -0.71,-0.71 m 3.387,-6.538 c 0,0 0.847,-1.208 2.466,-1.208 1.108,0 2.279,0.572 2.279,1.681 0,1.171 -0.934,1.582 -2.03,1.818 -0.947,0.2 -1.395,0.436 -1.395,0.872 0,0.374 0.361,0.735 1.096,0.735 0.872,0 1.445,-0.635 1.445,-0.635 l 0.685,0.71 c 0,0 -0.772,0.872 -2.13,0.872 -1.283,0 -2.117,-0.822 -2.117,-1.657 0,-1.084 0.871,-1.569 2.105,-1.818 0.884,-0.175 1.307,-0.424 1.307,-0.922 0,-0.461 -0.66,-0.71 -1.245,-0.71 -1.134,0 -1.744,0.934 -1.744,0.934 z m 6.289,3.749 h 1.121 V 1.657 c 0,-1.271 0.909,-1.806 1.732,-1.806 0.336,0 0.697,0.074 1.195,0.348 l -0.386,0.86 c 0,0 -0.336,-0.237 -0.66,-0.237 -0.56,0 -0.835,0.324 -0.835,0.884 v 3.102 h 1.794 V 5.754 H 76.794 V 7.51 H 75.748 V 5.754 h -1.121 z m 8.407,1.096 c -1.731,0 -2.877,-1.346 -2.877,-3.027 0,-1.706 1.258,-3.026 3.002,-3.026 1.519,0 2.391,1.133 2.391,1.133 l -0.66,0.685 c 0,0 -0.598,-0.847 -1.731,-0.847 -1.084,0 -1.918,0.81 -1.98,1.681 h 4.645 c 0.013,0.137 0.013,0.225 0.013,0.337 0,1.855 -1.196,3.064 -2.803,3.064 m -1.83,-2.529 c 0.074,0.598 0.585,1.557 1.83,1.557 1.159,0 1.744,-0.909 1.781,-1.557 z m 9.154,2.529 C 89.262,5.904 88.751,4.87 88.751,4.87 V 5.754 H 87.78 V 0 h 1.046 v 3.961 c 0,0 0.411,0.971 1.32,0.971 0.436,0 0.66,-0.124 0.66,-0.124 l 0.386,0.946 c 0,0 -0.361,0.15 -0.834,0.15 M 92.948,0 h 1.046 v 5.754 h -1.046 z m -0.186,7.597 c 0,-0.386 0.323,-0.709 0.709,-0.709 0.387,0 0.71,0.323 0.71,0.709 0,0.386 -0.323,0.71 -0.71,0.71 -0.386,0 -0.709,-0.324 -0.709,-0.71 m 5.927,-7.746 c 1.246,0 1.769,1.033 1.769,1.033 V 0 h 0.972 v 5.754 h -1.047 V 1.769 c 0,0 -0.461,-0.947 -1.432,-0.947 -0.772,0 -1.382,0.423 -1.382,1.407 V 5.754 H 96.522 V 2.055 c 0,-1.42 1.022,-2.204 2.167,-2.204 m 11.16,6.053 c -1.258,0 -1.719,-1.072 -1.719,-1.072 0,0 -0.361,1.072 -1.793,1.072 -1.171,0 -1.594,-0.997 -1.594,-0.997 v 0.847 h -0.972 V 0 h 1.046 v 4.01 c 0,0 0.386,0.922 1.233,0.922 0.748,0 1.233,-0.461 1.233,-1.395 V 0 h 1.046 v 4.01 c 0,0 0.374,0.922 1.234,0.922 0.747,0 1.232,-0.461 1.232,-1.395 V 0 h 1.047 v 3.699 c 0,1.42 -0.797,2.205 -1.993,2.205" /></g><g
           transform="translate(27.2127,64.9251)"
           id="g38"><path
             id="path40"
             style="fill:#ef3120;fill-opacity:1;fill-rule:nonzero;stroke:none"
             d="M 0,0 V 2.942 H -13.606 L -12.235,0 Z" /></g><g
           transform="translate(17.7207,59.0411)"
           id="g42"><path
             id="path44"
             style="fill:#ef3120;fill-opacity:1;fill-rule:nonzero;stroke:none"
             d="M 0,0 H 9.492 V 2.942 H -1.372 Z" /></g></g></g><g
       transform="translate(15.6176,99.8325)"
       id="g46"><path
         id="path48"
         style="fill:#231f20;fill-opacity:1;fill-rule:nonzero;stroke:none"
         d="M 0,0 3.876,-5.984 7.752,0 h 1.887 v -11.9 h -2.04 v 7.99 L 3.876,-9.571 0.153,-3.91 v -7.99 h -2.04 V 0 Z" /></g><g
       id="g50"><g
         clip-path="url(#clipPath56)"
         id="g52"><path
           id="path58"
           style="fill:#231f20;fill-opacity:1;fill-rule:nonzero;stroke:none"
           d="m 28.282,95.991 h 2.04 v -8.058 h -2.04 z m 0.069,3.552 c 0.26,0.261 0.577,0.392 0.951,0.392 0.374,0 0.692,-0.131 0.952,-0.392 0.261,-0.26 0.392,-0.577 0.392,-0.951 0,-0.374 -0.131,-0.692 -0.392,-0.952 -0.26,-0.261 -0.578,-0.392 -0.952,-0.392 -0.374,0 -0.691,0.131 -0.951,0.392 -0.261,0.26 -0.392,0.578 -0.392,0.952 0,0.374 0.131,0.691 0.392,0.951" /><g
           transform="translate(32.4643,95.9907)"
           id="g60"><path
             id="path62"
             style="fill:#231f20;fill-opacity:1;fill-rule:nonzero;stroke:none"
             d="m 0,0 h 1.581 v 2.397 h 2.04 V 0 H 6.052 V -1.836 H 3.621 v -3.247 c 0,-0.487 0.108,-0.822 0.323,-1.003 0.215,-0.182 0.459,-0.272 0.731,-0.272 0.124,0 0.235,0.014 0.331,0.043 0.097,0.027 0.185,0.064 0.264,0.11 0.09,0.034 0.175,0.079 0.255,0.136 L 6.273,-7.735 C 6.114,-7.837 5.939,-7.922 5.746,-7.99 5.576,-8.058 5.372,-8.12 5.134,-8.177 4.896,-8.234 4.629,-8.262 4.335,-8.262 c -0.385,0 -0.748,0.068 -1.088,0.204 -0.34,0.136 -0.632,0.329 -0.875,0.578 -0.244,0.249 -0.437,0.549 -0.578,0.901 -0.142,0.351 -0.213,0.742 -0.213,1.173 v 3.57 l -1.581,0 z" /></g><g
           transform="translate(53.4082,99.8325)"
           id="g64"><path
             id="path66"
             style="fill:#231f20;fill-opacity:1;fill-rule:nonzero;stroke:none"
             d="m 0,0 h 2.04 v -7.582 c 0,-0.657 -0.108,-1.261 -0.323,-1.811 -0.216,-0.549 -0.521,-1.025 -0.918,-1.427 -0.397,-0.403 -0.879,-0.717 -1.445,-0.944 -0.567,-0.227 -1.201,-0.34 -1.904,-0.34 -0.703,0 -1.337,0.113 -1.904,0.34 -0.567,0.227 -1.049,0.541 -1.445,0.944 -0.397,0.402 -0.703,0.878 -0.918,1.427 -0.215,0.55 -0.323,1.154 -0.323,1.811 V 0 h 2.04 v -7.327 c 0,-0.85 0.213,-1.536 0.638,-2.057 0.424,-0.521 1.062,-0.782 1.912,-0.782 0.85,0 1.488,0.261 1.913,0.782 C -0.212,-8.863 0,-8.177 0,-7.327 Z" /></g><g
           transform="translate(63.5991,95.9907)"
           id="g68"><path
             id="path70"
             style="fill:#231f20;fill-opacity:1;fill-rule:nonzero;stroke:none"
             d="M 0,0 C 0.357,-0.136 0.672,-0.334 0.944,-0.595 1.216,-0.856 1.431,-1.173 1.59,-1.547 1.749,-1.921 1.828,-2.352 1.828,-2.839 v -5.219 h -2.04 v 4.709 c 0,0.578 -0.156,0.997 -0.468,1.258 -0.312,0.26 -0.688,0.391 -1.13,0.391 -0.261,0 -0.491,-0.054 -0.689,-0.162 -0.198,-0.107 -0.365,-0.223 -0.502,-0.348 -0.158,-0.159 -0.294,-0.334 -0.407,-0.527 v -5.321 h -2.04 V 0 h 1.904 v -1.173 c 0.147,0.26 0.34,0.493 0.578,0.697 0.192,0.17 0.439,0.326 0.739,0.467 0.3,0.142 0.666,0.213 1.097,0.213 C -0.734,0.204 -0.357,0.136 0,0" /></g><g
           transform="translate(67.2456,95.9907)"
           id="g72"><path
             id="path74"
             style="fill:#231f20;fill-opacity:1;fill-rule:nonzero;stroke:none"
             d="m 0,0 h 1.581 v 2.397 h 2.04 V 0 H 6.052 V -1.836 H 3.621 v -3.247 c 0,-0.487 0.108,-0.822 0.323,-1.003 0.215,-0.182 0.459,-0.272 0.731,-0.272 0.124,0 0.235,0.014 0.331,0.043 0.096,0.027 0.184,0.064 0.264,0.11 0.09,0.034 0.175,0.079 0.255,0.136 L 6.273,-7.735 C 6.114,-7.837 5.938,-7.922 5.746,-7.99 5.576,-8.058 5.372,-8.12 5.134,-8.177 4.896,-8.234 4.629,-8.262 4.335,-8.262 c -0.385,0 -0.748,0.068 -1.088,0.204 -0.34,0.136 -0.632,0.329 -0.875,0.578 -0.245,0.249 -0.437,0.549 -0.579,0.901 -0.141,0.351 -0.212,0.742 -0.212,1.173 v 3.57 l -1.581,0 z" /></g><g
           transform="translate(80.9135,92.7095)"
           id="g76"><path
             id="path78"
             style="fill:#231f20;fill-opacity:1;fill-rule:nonzero;stroke:none"
             d="M 0,0 C -0.011,0.17 -0.059,0.351 -0.145,0.544 -0.229,0.737 -0.354,0.915 -0.518,1.08 -0.683,1.244 -0.89,1.377 -1.139,1.479 -1.388,1.581 -1.683,1.632 -2.023,1.632 -2.352,1.632 -2.635,1.581 -2.873,1.479 -3.111,1.377 -3.313,1.247 -3.477,1.088 -3.641,0.929 -3.763,0.754 -3.842,0.561 -3.921,0.368 -3.972,0.181 -3.995,0 Z M -0.45,3.179 C 0.043,2.975 0.473,2.689 0.842,2.321 1.21,1.952 1.502,1.51 1.717,0.995 1.932,0.479 2.04,-0.091 2.04,-0.714 v -0.323 c 0,-0.136 -0.006,-0.283 -0.017,-0.442 h -6.018 c 0.034,-0.181 0.113,-0.368 0.238,-0.561 0.125,-0.193 0.283,-0.368 0.476,-0.527 0.193,-0.159 0.419,-0.289 0.68,-0.391 0.261,-0.102 0.55,-0.153 0.867,-0.153 0.363,0 0.677,0.043 0.944,0.128 0.266,0.085 0.495,0.178 0.688,0.28 0.227,0.125 0.419,0.261 0.578,0.408 l 1.02,-1.53 C 1.235,-4.04 0.941,-4.233 0.612,-4.403 0.329,-4.55 -0.008,-4.684 -0.399,-4.802 -0.79,-4.921 -1.235,-4.981 -1.734,-4.981 c -0.612,0 -1.181,0.111 -1.708,0.332 -0.527,0.221 -0.986,0.521 -1.377,0.9 -0.391,0.38 -0.698,0.828 -0.918,1.344 -0.221,0.515 -0.332,1.068 -0.332,1.657 0,0.589 0.102,1.142 0.306,1.658 0.204,0.515 0.485,0.963 0.842,1.342 0.357,0.38 0.784,0.681 1.283,0.902 0.499,0.221 1.037,0.331 1.615,0.331 0.555,0 1.08,-0.102 1.573,-0.306" /></g><g
           transform="translate(89.5405,96.1523)"
           id="g80"><path
             id="path82"
             style="fill:#231f20;fill-opacity:1;fill-rule:nonzero;stroke:none"
             d="m 0,0 c 0.164,-0.029 0.309,-0.054 0.434,-0.077 0.147,-0.045 0.289,-0.09 0.424,-0.136 L 0.145,-2.049 c -0.08,0.034 -0.165,0.068 -0.255,0.102 -0.091,0.023 -0.193,0.043 -0.306,0.06 -0.114,0.017 -0.25,0.025 -0.409,0.025 -0.305,0 -0.572,-0.056 -0.798,-0.17 -0.228,-0.113 -0.415,-0.238 -0.562,-0.374 -0.181,-0.158 -0.328,-0.34 -0.441,-0.544 v -5.27 h -2.04 v 8.058 h 1.937 v -1.173 c 0.148,0.261 0.329,0.493 0.544,0.697 0.182,0.17 0.409,0.326 0.681,0.468 0.272,0.141 0.594,0.212 0.968,0.212 C -0.343,0.042 -0.164,0.028 0,0" /></g><g
           transform="translate(92.5068,90.6694)"
           id="g84"><path
             id="path86"
             style="fill:#231f20;fill-opacity:1;fill-rule:nonzero;stroke:none"
             d="m 0,0 c 0.215,-0.215 0.453,-0.408 0.714,-0.578 0.215,-0.147 0.47,-0.28 0.765,-0.399 0.294,-0.119 0.612,-0.179 0.952,-0.179 0.419,0 0.779,0.06 1.08,0.179 0.3,0.119 0.45,0.303 0.45,0.552 0,0.261 -0.113,0.442 -0.34,0.544 C 3.394,0.221 2.975,0.335 2.363,0.459 1.966,0.55 1.586,0.66 1.224,0.791 0.861,0.921 0.544,1.088 0.272,1.292 0,1.496 -0.218,1.737 -0.382,2.015 c -0.165,0.278 -0.247,0.609 -0.247,0.994 0,0.317 0.077,0.626 0.23,0.927 0.152,0.3 0.376,0.569 0.671,0.807 C 0.567,4.981 0.929,5.171 1.36,5.312 1.79,5.454 2.284,5.525 2.839,5.525 3.304,5.525 3.72,5.474 4.088,5.372 4.457,5.27 4.771,5.157 5.032,5.032 5.349,4.885 5.627,4.72 5.865,4.539 L 4.845,3.043 C 4.664,3.168 4.465,3.287 4.25,3.4 4.069,3.491 3.856,3.57 3.613,3.638 3.369,3.706 3.111,3.74 2.839,3.74 2.454,3.74 2.114,3.675 1.819,3.545 1.524,3.414 1.377,3.224 1.377,2.975 1.377,2.726 1.524,2.55 1.819,2.448 2.114,2.346 2.601,2.221 3.281,2.074 3.678,1.995 4.043,1.896 4.378,1.777 4.712,1.658 5.001,1.502 5.245,1.309 5.488,1.116 5.678,0.879 5.814,0.595 5.95,0.312 6.018,-0.039 6.018,-0.459 6.018,-0.799 5.93,-1.121 5.754,-1.428 5.579,-1.734 5.335,-1.997 5.023,-2.218 4.712,-2.439 4.341,-2.615 3.91,-2.745 3.479,-2.875 3.009,-2.941 2.499,-2.941 c -0.589,0 -1.111,0.077 -1.564,0.23 -0.454,0.153 -0.833,0.32 -1.139,0.501 -0.363,0.215 -0.674,0.459 -0.935,0.731 z" /></g><g
           transform="translate(99.8681,95.9907)"
           id="g88"><path
             id="path90"
             style="fill:#231f20;fill-opacity:1;fill-rule:nonzero;stroke:none"
             d="m 0,0 h 1.581 v 2.397 h 2.04 V 0 H 6.052 V -1.836 H 3.621 v -3.247 c 0,-0.487 0.108,-0.822 0.323,-1.003 0.215,-0.182 0.459,-0.272 0.731,-0.272 0.124,0 0.235,0.014 0.331,0.043 0.097,0.027 0.185,0.064 0.264,0.11 0.09,0.034 0.175,0.079 0.255,0.136 L 6.273,-7.735 C 6.114,-7.837 5.939,-7.922 5.746,-7.99 5.576,-8.058 5.372,-8.12 5.134,-8.177 4.896,-8.234 4.629,-8.262 4.335,-8.262 c -0.385,0 -0.748,0.068 -1.088,0.204 -0.34,0.136 -0.632,0.329 -0.875,0.578 -0.244,0.249 -0.437,0.549 -0.578,0.901 -0.142,0.351 -0.213,0.742 -0.213,1.173 v 3.57 l -1.581,0 z" /></g><g
           transform="translate(112.4819,99.6118)"
           id="g92"><path
             id="path94"
             style="fill:#231f20;fill-opacity:1;fill-rule:nonzero;stroke:none"
             d="M 0,0 C 0.26,0.26 0.578,0.391 0.952,0.391 1.326,0.391 1.643,0.26 1.904,0 c 0.261,-0.261 0.391,-0.578 0.391,-0.952 0,-0.374 -0.13,-0.691 -0.391,-0.952 -0.261,-0.261 -0.578,-0.391 -0.952,-0.391 -0.374,0 -0.692,0.13 -0.952,0.391 -0.261,0.261 -0.391,0.578 -0.391,0.952 0,0.374 0.13,0.691 0.391,0.952 m -3.502,0 c 0.26,0.26 0.578,0.391 0.952,0.391 0.374,0 0.691,-0.131 0.952,-0.391 0.261,-0.261 0.391,-0.578 0.391,-0.952 0,-0.374 -0.13,-0.691 -0.391,-0.952 -0.261,-0.261 -0.578,-0.391 -0.952,-0.391 -0.374,0 -0.692,0.13 -0.952,0.391 -0.261,0.261 -0.391,0.578 -0.391,0.952 0,0.374 0.13,0.691 0.391,0.952 m 0.875,-11.679 c -0.357,0.136 -0.671,0.334 -0.943,0.595 -0.272,0.26 -0.491,0.578 -0.655,0.952 -0.164,0.374 -0.246,0.804 -0.246,1.292 v 5.219 h 2.04 v -4.658 c 0,-0.601 0.136,-1.034 0.408,-1.301 0.272,-0.266 0.669,-0.399 1.19,-0.399 0.26,0 0.493,0.051 0.697,0.153 0.204,0.102 0.368,0.215 0.493,0.34 0.158,0.147 0.294,0.311 0.408,0.493 v 5.372 h 2.04 v -8.058 H 0.901 v 1.173 c -0.159,-0.261 -0.357,-0.488 -0.595,-0.68 -0.193,-0.182 -0.44,-0.343 -0.74,-0.485 -0.3,-0.142 -0.66,-0.212 -1.079,-0.212 -0.385,0 -0.757,0.068 -1.114,0.204" /></g><g
           transform="translate(117.1054,95.9907)"
           id="g96"><path
             id="path98"
             style="fill:#231f20;fill-opacity:1;fill-rule:nonzero;stroke:none"
             d="m 0,0 h 1.581 v 2.397 h 2.04 V 0 H 6.052 V -1.836 H 3.621 v -3.247 c 0,-0.487 0.108,-0.822 0.323,-1.003 0.215,-0.182 0.459,-0.272 0.731,-0.272 0.124,0 0.235,0.014 0.331,0.043 0.097,0.027 0.184,0.064 0.264,0.11 0.09,0.034 0.175,0.079 0.255,0.136 L 6.273,-7.735 C 6.114,-7.837 5.938,-7.922 5.746,-7.99 5.576,-8.058 5.372,-8.12 5.134,-8.177 4.896,-8.234 4.629,-8.262 4.335,-8.262 c -0.385,0 -0.748,0.068 -1.088,0.204 -0.34,0.136 -0.632,0.329 -0.875,0.578 -0.245,0.249 -0.437,0.549 -0.579,0.901 -0.141,0.351 -0.212,0.742 -0.212,1.173 v 3.57 l -1.581,0 z" /></g><g
           transform="translate(132.2011,95.9907)"
           id="g100"><path
             id="path102"
             style="fill:#231f20;fill-opacity:1;fill-rule:nonzero;stroke:none"
             d="m 0,0 -3.995,-6.154 h 3.808 v -1.904 h -7.276 l 3.995,6.154 H -7.174 V 0 Z" /></g><g
           transform="translate(135.9326,87.9326)"
           id="g104"><path
             id="path106"
             style="fill:#231f20;fill-opacity:1;fill-rule:nonzero;stroke:none"
             d="m 0,0 c -0.357,0.136 -0.671,0.334 -0.943,0.595 -0.272,0.26 -0.491,0.578 -0.655,0.952 -0.164,0.374 -0.247,0.805 -0.247,1.292 v 5.219 h 2.04 V 3.4 c 0,-0.601 0.137,-1.034 0.409,-1.3 0.272,-0.267 0.668,-0.4 1.19,-0.4 0.261,0 0.493,0.051 0.697,0.153 0.203,0.102 0.368,0.215 0.492,0.34 0.16,0.147 0.295,0.311 0.409,0.493 v 5.372 h 2.04 V 0 H 3.527 V 1.173 C 3.369,0.912 3.171,0.686 2.933,0.493 2.74,0.312 2.493,0.15 2.193,0.008 1.893,-0.133 1.533,-0.204 1.113,-0.204 0.729,-0.204 0.357,-0.136 0,0" /></g><g
           transform="translate(149.2773,95.9907)"
           id="g108"><path
             id="path110"
             style="fill:#231f20;fill-opacity:1;fill-rule:nonzero;stroke:none"
             d="m 0,0 c 0.356,-0.136 0.671,-0.334 0.943,-0.595 0.272,-0.261 0.488,-0.578 0.646,-0.952 0.159,-0.374 0.238,-0.805 0.238,-1.292 v -5.219 h -2.04 v 4.709 c 0,0.578 -0.156,0.997 -0.468,1.258 -0.311,0.26 -0.688,0.391 -1.13,0.391 -0.26,0 -0.49,-0.054 -0.688,-0.162 -0.198,-0.107 -0.366,-0.223 -0.502,-0.348 -0.158,-0.159 -0.295,-0.334 -0.408,-0.527 v -5.321 h -2.04 V 0 h 1.904 v -1.173 c 0.148,0.26 0.34,0.493 0.578,0.697 0.193,0.17 0.44,0.326 0.739,0.467 0.301,0.142 0.666,0.213 1.097,0.213 C -0.734,0.204 -0.357,0.136 0,0" /></g><g
           transform="translate(159.2304,93.1685)"
           id="g112"><path
             id="path114"
             style="fill:#231f20;fill-opacity:1;fill-rule:nonzero;stroke:none"
             d="m 0,0 c -0.124,0.204 -0.277,0.391 -0.459,0.561 -0.158,0.148 -0.356,0.278 -0.595,0.391 -0.238,0.113 -0.527,0.17 -0.867,0.17 -0.34,0 -0.648,-0.059 -0.926,-0.178 -0.278,-0.119 -0.51,-0.284 -0.697,-0.493 -0.187,-0.21 -0.332,-0.457 -0.433,-0.74 -0.103,-0.283 -0.154,-0.589 -0.154,-0.918 0,-0.329 0.051,-0.635 0.154,-0.918 0.101,-0.283 0.246,-0.53 0.433,-0.739 0.187,-0.21 0.419,-0.374 0.697,-0.493 0.278,-0.12 0.586,-0.179 0.926,-0.179 0.329,0 0.615,0.059 0.859,0.179 0.244,0.119 0.445,0.246 0.603,0.382 0.182,0.17 0.335,0.357 0.459,0.561 z m 0,-4.403 c -0.067,-0.079 -0.164,-0.179 -0.289,-0.297 -0.124,-0.119 -0.28,-0.236 -0.467,-0.349 -0.187,-0.113 -0.408,-0.206 -0.663,-0.28 -0.255,-0.074 -0.542,-0.111 -0.858,-0.111 -0.522,0 -1.021,0.105 -1.496,0.315 -0.477,0.209 -0.893,0.501 -1.25,0.875 -0.357,0.374 -0.644,0.819 -0.859,1.334 -0.215,0.516 -0.323,1.086 -0.323,1.709 0,0.624 0.108,1.193 0.323,1.708 0.215,0.516 0.502,0.961 0.859,1.335 0.357,0.374 0.773,0.666 1.25,0.875 0.475,0.21 0.974,0.315 1.496,0.315 0.43,0 0.796,-0.065 1.095,-0.195 C -0.881,2.7 -0.629,2.556 -0.425,2.397 -0.198,2.216 -0.006,2.006 0.153,1.768 V 2.822 H 2.04 V -5.304 C 2.04,-6.006 1.921,-6.613 1.684,-7.123 1.445,-7.633 1.125,-8.052 0.723,-8.381 0.32,-8.709 -0.142,-8.953 -0.663,-9.112 -1.184,-9.271 -1.729,-9.35 -2.295,-9.35 c -0.578,0 -1.102,0.079 -1.572,0.238 -0.471,0.159 -0.87,0.335 -1.198,0.527 -0.398,0.227 -0.748,0.482 -1.055,0.765 l 1.156,1.564 c 0.227,-0.226 0.477,-0.425 0.748,-0.595 0.239,-0.158 0.522,-0.297 0.851,-0.417 0.328,-0.118 0.685,-0.178 1.07,-0.178 0.793,0 1.374,0.193 1.743,0.578 C -0.184,-6.482 0,-5.984 0,-5.372 Z" /></g><g
           transform="translate(170.4336,95.9907)"
           id="g116"><path
             id="path118"
             style="fill:#231f20;fill-opacity:1;fill-rule:nonzero;stroke:none"
             d="M 0,0 2.04,-4.386 4.08,0 H 6.273 L 2.006,-8.466 -2.261,0 Z" /></g><g
           transform="translate(182.8681,89.8198)"
           id="g120"><path
             id="path122"
             style="fill:#231f20;fill-opacity:1;fill-rule:nonzero;stroke:none"
             d="M 0,0 C 0.278,0.124 0.513,0.294 0.706,0.51 0.898,0.725 1.046,0.972 1.147,1.249 1.25,1.527 1.301,1.824 1.301,2.142 1.301,2.459 1.25,2.759 1.147,3.043 1.046,3.326 0.898,3.572 0.706,3.782 0.513,3.992 0.278,4.159 0,4.284 -0.277,4.408 -0.586,4.471 -0.926,4.471 -1.267,4.471 -1.575,4.408 -1.853,4.284 -2.131,4.159 -2.365,3.992 -2.559,3.782 -2.751,3.572 -2.898,3.326 -3,3.043 -3.103,2.759 -3.153,2.459 -3.153,2.142 -3.153,1.824 -3.103,1.527 -3,1.249 -2.898,0.972 -2.751,0.725 -2.559,0.51 -2.365,0.294 -2.131,0.124 -1.853,0 c 0.278,-0.125 0.586,-0.187 0.927,-0.187 0.34,0 0.649,0.062 0.926,0.187 M 0.757,6.052 C 1.278,5.837 1.734,5.536 2.125,5.151 2.517,4.765 2.822,4.318 3.043,3.808 3.265,3.298 3.375,2.742 3.375,2.142 3.375,1.552 3.265,1 3.043,0.484 2.822,-0.032 2.517,-0.479 2.125,-0.859 1.734,-1.239 1.278,-1.538 0.757,-1.76 0.235,-1.98 -0.325,-2.091 -0.926,-2.091 c -0.601,0 -1.162,0.111 -1.683,0.331 -0.522,0.222 -0.978,0.521 -1.369,0.901 -0.39,0.38 -0.697,0.827 -0.918,1.343 -0.22,0.516 -0.332,1.068 -0.332,1.658 0,0.6 0.112,1.156 0.332,1.666 0.221,0.51 0.528,0.957 0.918,1.343 0.391,0.385 0.847,0.686 1.369,0.901 0.521,0.215 1.082,0.323 1.683,0.323 0.601,0 1.161,-0.108 1.683,-0.323" /></g><g
           transform="translate(198.6455,95.9907)"
           id="g124"><path
             id="path126"
             style="fill:#231f20;fill-opacity:1;fill-rule:nonzero;stroke:none"
             d="m 0,0 c 0.345,-0.136 0.643,-0.337 0.892,-0.604 0.25,-0.266 0.445,-0.589 0.587,-0.969 0.141,-0.38 0.212,-0.813 0.212,-1.3 v -5.185 h -2.04 V -3.4 c 0,0.555 -0.113,0.978 -0.34,1.266 -0.227,0.289 -0.595,0.434 -1.105,0.434 -0.261,0 -0.493,-0.054 -0.697,-0.162 -0.204,-0.107 -0.368,-0.223 -0.493,-0.348 -0.159,-0.159 -0.289,-0.334 -0.391,-0.527 v -5.321 h -2.04 V -3.4 c 0,0.555 -0.113,0.978 -0.34,1.266 -0.226,0.289 -0.595,0.434 -1.105,0.434 -0.261,0 -0.493,-0.054 -0.697,-0.162 -0.204,-0.107 -0.369,-0.223 -0.493,-0.348 -0.159,-0.159 -0.289,-0.334 -0.391,-0.527 v -5.321 h -2.04 V 0 h 1.904 v -1.173 c 0.147,0.26 0.34,0.493 0.578,0.697 0.192,0.17 0.439,0.326 0.739,0.467 0.301,0.142 0.656,0.213 1.063,0.213 0.487,0 0.889,-0.074 1.207,-0.221 0.317,-0.148 0.572,-0.306 0.765,-0.476 0.227,-0.215 0.402,-0.453 0.527,-0.714 0.147,0.261 0.34,0.499 0.578,0.714 0.204,0.17 0.468,0.328 0.791,0.476 0.322,0.147 0.722,0.221 1.198,0.221 C -0.723,0.204 -0.347,0.136 0,0" /></g></g></g></g></svg>