<?xml version="1.0" encoding="UTF-8"?>
<svg id="Ebene_1" xmlns="http://www.w3.org/2000/svg" version="1.1" viewBox="0 0 481.1 351.7">
  <!-- Generator: Adobe Illustrator 29.6.0, SVG Export Plug-In . SVG Version: 2.1.1 Build 180)  -->
  <defs>
    <style>
      .st0 {
        fill: #7d87ff;
      }

      .st1 {
        fill: #0a1f4a;
      }
    </style>
  </defs>
  <g>
    <path class="st0" d="M79.1,315.9l-2.9-.6c-.9-.2-1.5-.4-1.9-.8s-.6-.7-.6-1.3.3-1.1.9-1.4c.6-.4,1.3-.6,2.1-.6s1.7.2,2.2.6c.5.4.9.9,1.1,1.5l3.6-.7c-.2-.9-.6-1.7-1.2-2.3-.6-.7-1.3-1.2-2.3-1.6s-2.1-.6-3.4-.6-2.6.2-3.6.6-1.9,1-2.5,1.8c-.6.8-.9,1.7-.9,2.8s.4,2.3,1.2,3.1,2,1.4,3.6,1.7l3,.6c.8.2,1.4.4,1.8.7.4.3.6.7.6,1.2s-.3,1.1-.9,1.5c-.6.4-1.4.6-2.4.6s-1.8-.2-2.4-.6c-.6-.4-1-1.1-1.3-1.9l-3.8.7c.2,1,.6,1.9,1.3,2.7.7.7,1.5,1.3,2.5,1.7,1,.4,2.2.6,3.5.6s2.7-.2,3.9-.7c1.1-.5,2-1.1,2.6-1.9.6-.8.9-1.8.9-2.9s-.4-2.2-1.2-3c-.8-.8-2-1.3-3.6-1.7Z"/>
    <path class="st0" d="M108.9,308.9c-.8-.5-1.8-.7-2.8-.7s-1.7.2-2.5.5c-.8.3-1.5.9-2,1.5-.4.5-.7,1.1-.9,1.8-.3-1.1-.8-2-1.4-2.7-.8-.8-1.8-1.2-3-1.2s-1.5.2-2.2.5c-.7.3-1.3.8-1.8,1.4-.4.5-.7,1.1-.9,1.7v-3.4h-3.9v17.3h4v-10.6c0-.8.1-1.4.4-1.9.3-.5.7-.9,1.2-1.2.5-.3,1-.4,1.6-.4.9,0,1.6.3,2.1.8.5.5.8,1.2.8,2.1v11.2h3.9v-10.9c0-.6.1-1.2.4-1.7.3-.5.6-.9,1.1-1.2s1-.4,1.7-.4,1.5.2,2.1.7c.6.5.9,1.3.9,2.3v11h4v-11.7c0-1.3-.2-2.4-.7-3.2-.5-.9-1.1-1.5-2-2Z"/>
    <path class="st0" d="M127.5,309.5c-.7-.5-1.5-.8-2.3-1s-1.7-.3-2.5-.3c-1.2,0-2.2.2-3.2.5s-1.8.8-2.5,1.5c-.7.7-1.2,1.5-1.6,2.5l3.7.8c.1-.4.4-.7.7-1.1.3-.3.7-.6,1.2-.8.5-.2,1.1-.3,1.7-.3s1.2.1,1.7.3c.4.2.8.5,1,.9.2.4.3.9.3,1.4h0c0,.5-.1.8-.4.9-.3.2-.8.3-1.4.4-.6,0-1.4.2-2.4.3-.8,0-1.7.2-2.4.4s-1.5.5-2.1.9c-.6.4-1.1.9-1.5,1.5-.4.6-.5,1.4-.5,2.4s.3,2.1.8,2.9,1.2,1.4,2.1,1.8c.9.4,1.9.6,3,.6s1.7-.1,2.4-.4c.7-.3,1.2-.6,1.7-1,.4-.4.8-.9,1.1-1.4h.2v2.4h3.8v-11.5c0-1.2-.2-2.1-.6-2.9-.4-.8-1-1.4-1.7-1.8ZM125.8,319.5c0,.6-.2,1.2-.5,1.8s-.8,1-1.4,1.3-1.3.5-2.2.5-1.1,0-1.5-.3-.8-.4-1-.8-.4-.7-.4-1.2.1-1,.4-1.3c.3-.3.7-.6,1.1-.8.5-.2,1-.3,1.6-.4.3,0,.6,0,1-.1.4,0,.8-.1,1.1-.2.4,0,.7-.2,1.1-.2.3,0,.5-.2.7-.3v2Z"/>
    <path class="st0" d="M142.4,308.2c-1,0-1.9.3-2.6.8s-1.3,1.3-1.6,2.3h-.2v-2.9h-3.9v17.3h4v-10.2c0-.7.2-1.4.5-1.9s.8-1,1.4-1.3c.6-.3,1.3-.5,2-.5s.7,0,1.1,0,.6,0,.8.1v-3.7c-.2,0-.4,0-.7,0-.3,0-.5,0-.8,0Z"/>
    <path class="st0" d="M154.3,322.6c-.3,0-.5,0-.7,0-.6,0-1-.1-1.3-.4-.3-.3-.4-.8-.4-1.4v-9.3h3.3v-3.2h-3.3v-4.1h-4v4.1h-2.5v3.2h2.5v9.6c0,1.5.4,2.7,1.3,3.5.9.8,2.2,1.2,3.8,1.2s.9,0,1.3,0c.5,0,.9-.2,1.4-.3l-.6-3.1c-.2,0-.4,0-.7.1Z"/>
    <path class="st0" d="M161.3,321.1c-.7,0-1.3.2-1.8.7-.5.5-.7,1.1-.7,1.8s.2,1.3.7,1.7c.5.5,1.1.7,1.8.7s1.3-.2,1.8-.7c.5-.5.7-1.1.7-1.7s-.2-1.3-.7-1.8c-.5-.5-1.1-.7-1.8-.7Z"/>
    <path class="st0" d="M187.4,311.3h-.2c-.2-.4-.5-.9-.9-1.3s-.9-.9-1.6-1.2c-.7-.3-1.5-.5-2.5-.5s-2.5.3-3.6,1-1.9,1.7-2.6,3-1,2.9-1,4.8.3,3.4,1,4.7,1.5,2.2,2.6,2.8c1.1.6,2.3.9,3.6.9s1.8-.1,2.5-.4,1.2-.7,1.5-1.1c.4-.4.7-.9.9-1.3h.3v3.3c0,1.2-.4,2.1-1.1,2.7-.8.6-1.8.9-3,.9s-1.5-.1-2.1-.3c-.5-.2-1-.5-1.3-.8-.3-.3-.6-.7-.8-1l-3.4,1.2c.3.8.8,1.4,1.4,2,.7.6,1.5,1.1,2.5,1.4,1,.4,2.2.5,3.6.5s2.9-.2,4.2-.7c1.2-.5,2.2-1.2,2.9-2.2s1.1-2.3,1.1-3.8v-17.3h-3.9v2.9ZM186.9,319.9c-.3.8-.8,1.4-1.4,1.8-.6.4-1.3.6-2.2.6s-1.7-.2-2.3-.7c-.6-.4-1.1-1.1-1.4-1.8-.3-.8-.5-1.7-.5-2.8s.2-2,.5-2.8c.3-.8.8-1.5,1.4-1.9s1.4-.7,2.3-.7,1.6.2,2.2.7c.6.5,1.1,1.1,1.4,1.9.3.8.5,1.8.5,2.9s-.2,2.1-.5,2.8Z"/>
    <path class="st0" d="M203.9,308.2c-1,0-1.9.3-2.6.8s-1.3,1.3-1.6,2.3h-.2v-2.9h-3.9v17.3h4v-10.2c0-.7.2-1.4.5-1.9s.8-1,1.4-1.3c.6-.3,1.3-.5,2-.5s.7,0,1.1,0,.6,0,.8.1v-3.7c-.2,0-.4,0-.7,0-.3,0-.5,0-.8,0Z"/>
    <path class="st0" d="M220.4,310.3c-.7-.7-1.6-1.2-2.5-1.6-1-.3-2-.5-3-.5-1.6,0-3.1.4-4.3,1.1-1.2.8-2.2,1.8-2.8,3.1-.7,1.3-1,2.9-1,4.7s.3,3.4,1,4.7c.7,1.3,1.6,2.4,2.9,3.1s2.7,1.1,4.5,1.1,2.4-.2,3.4-.6c1-.4,1.8-.9,2.5-1.6s1.1-1.5,1.4-2.4l-3.7-.8c-.2.5-.4.9-.8,1.2-.4.3-.8.6-1.2.8-.5.2-1,.3-1.6.3-.9,0-1.7-.2-2.3-.6-.7-.4-1.2-.9-1.6-1.7-.3-.7-.5-1.5-.5-2.4h12v-1.3c0-1.5-.2-2.8-.6-3.9-.4-1.1-1-2-1.7-2.7ZM212.6,312c.6-.4,1.4-.6,2.3-.6s1.6.2,2.2.6,1,1,1.3,1.7c.2.5.3,1.1.4,1.8h-8c0-.6.2-1.3.4-1.8.3-.7.8-1.3,1.4-1.7Z"/>
    <path class="st0" d="M239.1,310.3c-.7-.7-1.6-1.2-2.5-1.6-1-.3-2-.5-3-.5-1.6,0-3.1.4-4.3,1.1-1.2.8-2.2,1.8-2.8,3.1-.7,1.3-1,2.9-1,4.7s.3,3.4,1,4.7c.7,1.3,1.6,2.4,2.9,3.1s2.7,1.1,4.5,1.1,2.4-.2,3.4-.6c1-.4,1.8-.9,2.5-1.6s1.1-1.5,1.4-2.4l-3.7-.8c-.2.5-.4.9-.8,1.2-.4.3-.8.6-1.2.8-.5.2-1,.3-1.6.3-.9,0-1.7-.2-2.3-.6-.7-.4-1.2-.9-1.6-1.7-.3-.7-.5-1.5-.5-2.4h12v-1.3c0-1.5-.2-2.8-.6-3.9-.4-1.1-1-2-1.7-2.7ZM231.3,312c.6-.4,1.4-.6,2.3-.6s1.6.2,2.2.6,1,1,1.3,1.7c.2.5.3,1.1.4,1.8h-8c0-.6.2-1.3.4-1.8.3-.7.8-1.3,1.4-1.7Z"/>
    <path class="st0" d="M257.2,309c-.9-.5-1.9-.8-3.1-.8s-2.6.4-3.5,1.1c-.8.6-1.4,1.5-1.8,2.6v-3.5h-3.9v17.3h4v-10.1c0-.8.2-1.5.5-2.1.3-.6.8-1,1.3-1.4.6-.3,1.2-.5,1.9-.5,1.1,0,1.9.3,2.5,1,.6.7.9,1.6.9,2.7v10.4h4v-11c0-1.4-.2-2.6-.7-3.5-.5-1-1.2-1.7-2.1-2.2Z"/>
    <path class="st0" d="M267.2,321.1c-.7,0-1.3.2-1.8.7-.5.5-.7,1.1-.7,1.8s.2,1.3.7,1.7c.5.5,1.1.7,1.8.7s1.3-.2,1.8-.7c.5-.5.7-1.1.7-1.7s-.2-1.3-.7-1.8c-.5-.5-1.1-.7-1.8-.7Z"/>
    <path class="st0" d="M292.4,321c-.2.4-.5.7-.8,1-.3.3-.7.5-1.1.6-.4.1-.9.2-1.4.2-.9,0-1.7-.3-2.3-.8s-1.1-1.2-1.4-2c-.3-.9-.5-1.8-.5-2.9s.2-2,.5-2.9c.3-.9.8-1.5,1.4-2s1.4-.8,2.3-.8.9,0,1.3.2.8.3,1.1.6c.3.3.6.6.8.9s.4.8.5,1.2l3.8-.8c-.2-.8-.5-1.6-.9-2.3s-1-1.2-1.6-1.7c-.6-.5-1.4-.8-2.2-1.1-.8-.2-1.7-.4-2.7-.4-1.7,0-3.1.4-4.4,1.1-1.2.7-2.2,1.8-2.9,3.1s-1,2.9-1,4.7.3,3.3,1,4.7c.7,1.3,1.6,2.4,2.9,3.1,1.2.7,2.7,1.1,4.4,1.1s1.9-.1,2.7-.4c.8-.3,1.6-.6,2.2-1.1.7-.5,1.2-1.1,1.6-1.7.4-.7.7-1.5.9-2.3l-3.8-.8c-.1.5-.3.9-.5,1.3Z"/>
    <path class="st0" d="M312,309.4c-1.2-.7-2.7-1.1-4.4-1.1s-3.1.4-4.4,1.1c-1.2.7-2.2,1.8-2.9,3.1s-1,2.9-1,4.7.3,3.3,1,4.7c.7,1.3,1.6,2.4,2.9,3.1,1.2.7,2.7,1.1,4.4,1.1s3.2-.4,4.4-1.1c1.2-.7,2.2-1.8,2.9-3.1.7-1.3,1-2.9,1-4.7s-.3-3.4-1-4.7-1.6-2.4-2.9-3.1ZM311.4,320c-.3.9-.8,1.5-1.4,2s-1.4.8-2.3.8-1.7-.3-2.3-.8-1.1-1.2-1.4-2c-.3-.9-.5-1.8-.5-2.9s.2-2,.5-2.9c.3-.9.8-1.5,1.4-2s1.4-.8,2.3-.8,1.7.3,2.3.8,1.1,1.2,1.4,2c.3.9.5,1.8.5,2.9s-.2,2-.5,2.9Z"/>
    <path class="st0" d="M331.7,309c-.9-.5-1.9-.8-3.1-.8s-2.6.4-3.5,1.1c-.8.6-1.4,1.5-1.8,2.6v-3.5h-3.9v17.3h4v-10.1c0-.8.2-1.5.5-2.1.3-.6.8-1,1.3-1.4.6-.3,1.2-.5,1.9-.5,1.1,0,1.9.3,2.5,1,.6.7.9,1.6.9,2.7v10.4h4v-11c0-1.4-.2-2.6-.7-3.5-.5-1-1.2-1.7-2.1-2.2Z"/>
    <path class="st0" d="M351.1,309c-.9-.5-1.9-.8-3.1-.8s-2.6.4-3.5,1.1c-.8.6-1.4,1.5-1.8,2.6v-3.5h-3.9v17.3h4v-10.1c0-.8.2-1.5.5-2.1.3-.6.8-1,1.3-1.4.6-.3,1.2-.5,1.9-.5,1.1,0,1.9.3,2.5,1,.6.7.9,1.6.9,2.7v10.4h4v-11c0-1.4-.2-2.6-.7-3.5-.5-1-1.2-1.7-2.1-2.2Z"/>
    <path class="st0" d="M371.1,310.3c-.7-.7-1.6-1.2-2.5-1.6-1-.3-2-.5-3-.5-1.6,0-3.1.4-4.3,1.1-1.2.8-2.2,1.8-2.8,3.1-.7,1.3-1,2.9-1,4.7s.3,3.4,1,4.7c.7,1.3,1.6,2.4,2.9,3.1s2.7,1.1,4.5,1.1,2.4-.2,3.4-.6c1-.4,1.8-.9,2.5-1.6s1.1-1.5,1.4-2.4l-3.7-.8c-.2.5-.4.9-.8,1.2-.4.3-.8.6-1.2.8-.5.2-1,.3-1.6.3-.9,0-1.7-.2-2.3-.6-.7-.4-1.2-.9-1.6-1.7-.3-.7-.5-1.5-.5-2.4h12v-1.3c0-1.5-.2-2.8-.6-3.9-.4-1.1-1-2-1.7-2.7ZM363.3,312c.6-.4,1.4-.6,2.3-.6s1.6.2,2.2.6,1,1,1.3,1.7c.2.5.3,1.1.4,1.8h-8c0-.6.2-1.3.4-1.8.3-.7.8-1.3,1.4-1.7Z"/>
    <path class="st0" d="M387.6,321c-.2.4-.5.7-.8,1-.3.3-.7.5-1.1.6-.4.1-.9.2-1.4.2-.9,0-1.7-.3-2.3-.8s-1.1-1.2-1.4-2c-.3-.9-.5-1.8-.5-2.9s.2-2,.5-2.9c.3-.9.8-1.5,1.4-2s1.4-.8,2.3-.8.9,0,1.3.2.8.3,1.1.6c.3.3.6.6.8.9s.4.8.5,1.2l3.8-.8c-.2-.8-.5-1.6-.9-2.3s-1-1.2-1.6-1.7c-.6-.5-1.4-.8-2.2-1.1-.8-.2-1.7-.4-2.7-.4-1.7,0-3.1.4-4.4,1.1-1.2.7-2.2,1.8-2.9,3.1s-1,2.9-1,4.7.3,3.3,1,4.7c.7,1.3,1.6,2.4,2.9,3.1,1.2.7,2.7,1.1,4.4,1.1s1.9-.1,2.7-.4c.8-.3,1.6-.6,2.2-1.1.7-.5,1.2-1.1,1.6-1.7.4-.7.7-1.5.9-2.3l-3.8-.8c-.1.5-.3.9-.5,1.3Z"/>
    <path class="st0" d="M402.4,322.6c-.3,0-.5,0-.7,0-.6,0-1-.1-1.3-.4-.3-.3-.4-.8-.4-1.4v-9.3h3.3v-3.2h-3.3v-4.1h-4v4.1h-2.5v3.2h2.5v9.6c0,1.5.4,2.7,1.3,3.5.9.8,2.2,1.2,3.8,1.2s.9,0,1.3,0c.5,0,.9-.2,1.4-.3l-.6-3.1c-.2,0-.4,0-.7.1Z"/>
    <path class="st0" d="M409.4,321.1c-.7,0-1.3.2-1.8.7-.5.5-.7,1.1-.7,1.8s.2,1.3.7,1.7c.5.5,1.1.7,1.8.7s1.3-.2,1.8-.7c.5-.5.7-1.1.7-1.7s-.2-1.3-.7-1.8c-.5-.5-1.1-.7-1.8-.7Z"/>
  </g>
  <g>
    <path class="st1" d="M28,253.3h11.4c1.8,0,3.6,0,5.3,0,.5,0,.9,0,1.4,0-.3.3-.5.5-.8.8-1.3,1.5-2.6,2.9-3.6,4.4l-13.8,18.4v5.6h30.4v-8.1h-10.5c-1.9,0-3.8,0-5.8,0-.6,0-1.3,0-1.9,0,.3-.3.6-.7,1-1,1.4-1.5,2.7-3,3.8-4.5l13.5-18v-5.6h-30.4v8.1Z"/>
    <path class="st1" d="M78.3,280.5c1.2-1.3,2.2-2.8,2.8-4.6l.2,6.4h9.4v-27.9h-10v15.7c0,.9-.2,1.7-.5,2.4s-.8,1.2-1.4,1.5-1.3.5-2.1.5c-1.3,0-2.2-.4-2.9-1.2-.7-.8-1-1.9-1-3.3v-15.7h-10v17.8c0,2,.4,3.8,1.2,5.4.8,1.6,1.9,2.8,3.4,3.7s3.2,1.3,5.1,1.3,4.6-.7,6-2.2Z"/>
    <path class="st1" d="M115.6,282.3h9.4v-27.9h-10v15.7c0,.9-.2,1.7-.5,2.4-.3.7-.8,1.2-1.4,1.5-.6.4-1.3.5-2.1.5-1.3,0-2.2-.4-2.9-1.2-.7-.8-1.1-1.9-1.1-3.3v-15.7h-10v17.8c0,2,.4,3.8,1.2,5.4.8,1.6,1.9,2.8,3.4,3.7,1.5.9,3.2,1.3,5.1,1.3s4.6-.7,6-2.2c1.2-1.3,2.2-2.8,2.8-4.6l.2,6.4Z"/>
    <path class="st1" d="M159.1,254.4h-9.9v4.9h-.2c-.4-.9-.9-1.8-1.6-2.6-.7-.8-1.6-1.4-2.7-1.9-1-.5-2.3-.7-3.6-.7s-3.6.5-5.3,1.5c-1.7,1-3,2.5-4.1,4.6-1.1,2.1-1.6,4.8-1.6,8.2s.5,5.8,1.5,7.8c1,2,2.3,3.5,4,4.4,1.7.9,3.5,1.4,5.5,1.4s2.4-.2,3.4-.5c1-.3,1.8-.9,2.5-1.5.7-.7,1.2-1.5,1.5-2.4h.7v4.7c0,1.5-.4,2.6-1.2,3.3-.8.7-2,1.1-3.6,1.1s-1.6,0-2.2-.3c-.6-.2-1.2-.5-1.6-.8-.4-.4-.6-.8-.8-1.3l-8.8,1.3c.3,1.6,1,3,2.1,4.2,1.2,1.2,2.7,2.1,4.6,2.7,1.9.6,4.1,1,6.7,1s5.5-.5,7.7-1.4c2.2-.9,3.9-2.3,5.1-4.1,1.2-1.8,1.8-4,1.8-6.6v-26.9ZM148.7,271.9c-.4,1-.9,1.7-1.5,2.2-.7.5-1.5.8-2.4.8s-1.7-.2-2.3-.7c-.6-.5-1.1-1.2-1.5-2.2s-.5-2.1-.5-3.5.2-2.6.5-3.6c.3-1,.8-1.8,1.5-2.3.6-.5,1.4-.8,2.3-.8s1.7.3,2.4.8,1.2,1.3,1.5,2.3c.4,1,.5,2.2.5,3.6s-.2,2.5-.5,3.5Z"/>
    <rect class="st1" x="165.2" y="245.1" width="10" height="37.2"/>
    <path class="st1" d="M199.2,273.4c-.2.5-.5,1-.9,1.3-.4.4-.9.6-1.4.8-.6.2-1.2.3-1.9.3s-1.8-.2-2.5-.6c-.7-.4-1.3-1-1.7-1.8-.4-.7-.5-1.6-.6-2.7h18.2v-2.3c0-2.2-.3-4.2-1-6-.6-1.8-1.6-3.3-2.8-4.5s-2.7-2.2-4.4-2.8c-1.7-.7-3.6-1-5.7-1s-5.4.6-7.5,1.8c-2.1,1.2-3.8,2.9-4.9,5-1.2,2.2-1.7,4.7-1.7,7.6s.6,5.6,1.7,7.7c1.1,2.1,2.8,3.8,5,4.9,2.2,1.1,4.7,1.7,7.7,1.7s4.5-.3,6.3-1c1.8-.7,3.3-1.6,4.5-2.8,1.2-1.2,2-2.7,2.5-4.3l-8.8-1.3ZM192.2,261.7c.6-.4,1.5-.6,2.4-.6s1.8.2,2.4.6,1.1,1,1.5,1.8c.2.5.3,1.1.4,1.7h-8.6c0-.6.2-1.2.4-1.7.3-.8.8-1.4,1.5-1.8Z"/>
    <path class="st1" d="M242.2,274.1c-.7.3-1.6.4-2.7.4s-2.4-.2-3.3-.6c-.9-.4-1.6-1-2.1-1.8-.5-.8-.8-1.7-.9-2.9h-9.6c0,3.1.7,5.7,2,7.7s3.2,3.5,5.6,4.4c2.4,1,5.2,1.4,8.5,1.4s5.8-.4,8.1-1.3c2.2-.9,4-2.2,5.2-3.9,1.2-1.7,1.8-3.8,1.8-6.2s-.2-2.7-.7-3.9c-.4-1.2-1.1-2.3-2.1-3.2-.9-1-2.1-1.8-3.6-2.5s-3.2-1.3-5.3-1.7l-3-.6c-1.2-.3-2.1-.5-2.9-.9-.7-.3-1.3-.7-1.6-1.1s-.5-1-.5-1.5.2-1,.5-1.5.8-.8,1.5-1c.7-.2,1.5-.4,2.5-.4,1.6,0,2.9.3,3.7,1,.8.7,1.3,1.6,1.3,2.8h9.7c0-2.4-.6-4.6-1.8-6.4-1.2-1.8-2.9-3.2-5.1-4.2-2.2-1-4.8-1.5-7.8-1.5s-5.5.5-7.8,1.5-4,2.4-5.3,4.1c-1.3,1.8-1.9,3.8-1.9,6.2s.9,5.2,2.8,6.9,4.5,2.9,7.8,3.6l3.7.8c1.4.3,2.5.6,3.3.9.8.4,1.4.7,1.8,1.2.4.4.5.9.5,1.5s-.2,1.2-.6,1.6-.9.8-1.7,1.1Z"/>
    <path class="st1" d="M285.1,274.7l-8.8-1.3c-.2.5-.5,1-.9,1.3-.4.4-.9.6-1.4.8-.6.2-1.2.3-1.9.3s-1.8-.2-2.5-.6c-.7-.4-1.3-1-1.7-1.8-.4-.7-.5-1.6-.6-2.7h18.2v-2.3c0-2.2-.3-4.2-1-6-.6-1.8-1.6-3.3-2.8-4.5-1.2-1.2-2.7-2.2-4.4-2.8-1.7-.7-3.6-1-5.7-1s-5.4.6-7.5,1.8c-2.1,1.2-3.8,2.9-4.9,5-1.2,2.2-1.7,4.7-1.7,7.6s.6,5.6,1.7,7.7c1.1,2.1,2.8,3.8,5,4.9,2.2,1.1,4.7,1.7,7.7,1.7s4.5-.3,6.3-1c1.8-.7,3.3-1.6,4.5-2.8,1.2-1.2,2-2.7,2.5-4.3ZM269.3,261.7c.6-.4,1.5-.6,2.4-.6s1.8.2,2.4.6c.6.4,1.1,1,1.5,1.8.2.5.3,1.1.4,1.7h-8.6c0-.6.2-1.2.4-1.7.3-.8.8-1.4,1.5-1.8Z"/>
    <path class="st1" d="M300.6,267.8c0-1.1.2-2,.7-2.8.4-.8,1.1-1.4,1.8-1.8.8-.4,1.7-.7,2.6-.7s1.1,0,1.9.1c.7,0,1.3.2,1.8.4v-8.5c-.4-.1-.8-.2-1.2-.3-.4,0-.9,0-1.3,0-1.5,0-2.8.5-3.9,1.4-1.1.9-1.9,2.4-2.4,4.3h-.3v-5.3h-9.7v27.9h10v-14.5Z"/>
    <path class="st1" d="M333.6,254.4l-3.5,12.7c-.5,1.9-1,3.8-1.4,5.8-.1.7-.3,1.4-.4,2.2-.1-.7-.3-1.5-.4-2.2-.4-2-.9-3.9-1.4-5.8l-3.6-12.7h-10.5l9.9,27.9h11.8l10-27.9h-10.4Z"/>
    <rect class="st1" x="347.9" y="254.4" width="10" height="27.9"/>
    <path class="st1" d="M353,250.1c1.5,0,2.8-.5,3.9-1.6,1.1-1.1,1.6-2.4,1.6-3.9s-.5-2.8-1.6-3.9c-1.1-1.1-2.4-1.6-3.9-1.6s-2.8.5-3.9,1.6c-1.1,1.1-1.6,2.4-1.6,3.9s.5,2.8,1.6,3.9c1.1,1.1,2.4,1.6,3.9,1.6Z"/>
    <path class="st1" d="M369.7,281c2.2,1.2,4.7,1.8,7.8,1.8s3.7-.2,5.3-.7c1.6-.5,2.9-1.2,4.1-2.2,1.1-.9,2.1-2.1,2.7-3.4s1.1-2.8,1.3-4.5l-9.2-1.3c0,.7-.3,1.4-.5,2-.2.6-.5,1.1-.8,1.5-.3.4-.7.7-1.2.9-.4.2-.9.3-1.5.3-.9,0-1.6-.3-2.3-.8-.6-.5-1.2-1.3-1.5-2.3-.4-1-.5-2.3-.5-3.8s.2-2.8.5-3.8c.4-1,.9-1.8,1.5-2.3.6-.5,1.4-.7,2.3-.7s1,0,1.5.3c.4.2.8.5,1.2.9.3.4.6.9.8,1.4.2.6.4,1.2.5,1.9l9.2-1.4c-.2-1.6-.6-3.1-1.3-4.4s-1.6-2.4-2.8-3.3c-1.2-.9-2.5-1.6-4.1-2.1-1.6-.5-3.3-.7-5.2-.7-3,0-5.6.6-7.8,1.8-2.2,1.2-3.8,2.9-4.9,5-1.1,2.2-1.7,4.7-1.7,7.5s.6,5.4,1.7,7.5,2.8,3.8,4.9,5Z"/>
    <path class="st1" d="M418.2,257.9c-1.2-1.2-2.7-2.2-4.4-2.8-1.7-.7-3.6-1-5.7-1s-5.4.6-7.5,1.8c-2.1,1.2-3.8,2.9-4.9,5-1.2,2.2-1.7,4.7-1.7,7.6s.6,5.6,1.7,7.7c1.1,2.1,2.8,3.8,5,4.9,2.2,1.1,4.7,1.7,7.7,1.7s4.5-.3,6.3-1c1.8-.7,3.3-1.6,4.5-2.8,1.2-1.2,2-2.7,2.5-4.3l-8.8-1.3c-.2.5-.5,1-.9,1.3-.4.4-.9.6-1.4.8-.6.2-1.2.3-1.9.3s-1.8-.2-2.5-.6c-.7-.4-1.3-1-1.7-1.8-.3-.7-.5-1.6-.6-2.7h18.2v-2.3c0-2.2-.3-4.2-1-6-.6-1.8-1.6-3.3-2.8-4.5ZM405.7,261.7c.6-.4,1.5-.6,2.4-.6s1.8.2,2.4.6,1.1,1,1.5,1.8c.2.5.3,1.1.4,1.7h-8.6c0-.6.2-1.2.4-1.7.3-.8.8-1.4,1.5-1.8Z"/>
    <path class="st1" d="M451,268.1c-1.4-1.2-3.5-2.1-6.4-2.6l-5.7-1c-1-.2-1.8-.5-2.1-.8-.4-.4-.5-.8-.5-1.2s.3-1,.9-1.3c.6-.3,1.3-.5,2.2-.5s1.8.2,2.6.6c.7.4,1.2,1.1,1.4,2l8.8-1.3c-.3-1.7-1-3.1-2.1-4.3-1.1-1.2-2.6-2.1-4.5-2.8-1.8-.6-4-1-6.5-1s-5,.4-6.9,1.1-3.4,1.7-4.4,3.1c-1,1.3-1.6,3-1.6,4.9s.7,4,2.1,5.4c1.4,1.4,3.5,2.3,6.4,2.8l4.9.9c1.1.2,1.9.5,2.4.8s.8.7.8,1.3-.3,1-.8,1.3-1.3.4-2.3.4c-1.4,0-2.5-.3-3.2-.9-.8-.6-1.3-1.4-1.6-2.5l-9.3,1.3c.3,1.8,1.1,3.4,2.3,4.7,1.2,1.3,2.8,2.3,4.7,3.1s4.2,1.1,6.7,1.1,5-.4,7.1-1.2c2.1-.8,3.7-1.9,4.9-3.4s1.8-3.2,1.8-5.2-.7-3.7-2.1-4.9Z"/>
  </g>
  <g>
    <g>
      <path class="st1" d="M276,143.1v-32.1s16.2-16.1,16.2-16.1l-2.8-2.8-15.3,15.3-23.7-23.8h-21.1s-18.9-18.8-18.9-18.8c0,.2-.1.3-.2.5-.5.9-1.2,1.6-2.1,2.2-.2,0-.3.2-.5.2l18.2,18.1-11,11,.2,44h-26.9s0,4,0,4h26.9s0,7.8,0,7.8h-26.9s0,4,0,4h27.9s18.4,18.4,18.4,18.4c0,0,0-.1.1-.2.6-1.1,1.4-1.9,2.5-2.5,0,0,.1,0,.2-.1l-15.6-15.5h42.6c0,0,9.9-9.8,9.9-9.8l17.5,17.5,2.8-2.8-18.4-18.4ZM269.2,108.2h-16.7c0,0-13,13-13,13v12.5s7.1,7.1,7.1,7.1h-15.3v-29.9l10.8-10.7h19l8,8ZM218.7,98.4l10.8-10.8h19.1s8.6,8.5,8.6,8.5h-16.7l-13.2,13.1v31.6h-8.5s-.1-42.4-.1-42.4ZM218.9,152.6v-7.8s9.2,0,9.2,0l7.9,7.8h-17ZM272,143.1l-9.6,9.6h-20.8s-7.9-7.9-7.9-7.9h29.1s9.1-9.1,9.1-9.1v7.4ZM261.2,140.8h-9l-8.8-8.7v-9.2s10.7-10.6,10.7-10.6h17.9c0,0,0,17.7,0,17.7l-10.9,10.9Z"/>
      <path class="st1" d="M258.2,124.7c-1.2-1.1-2.7-1.6-4.3-1.5-1.6,0-3,.8-4.1,2-1.1,1.2-1.6,2.7-1.5,4.3,0,1.6.8,3,2,4.1,1.1,1,2.5,1.5,4,1.5s.2,0,.3,0c3.3-.2,5.8-3,5.6-6.2,0-1.6-.8-3-2-4.1Z"/>
    </g>
    <path class="st0" d="M258.2,124.7c-1.2-1.1-2.7-1.6-4.3-1.5-1.6,0-3,.8-4.1,2-1.1,1.2-1.6,2.7-1.5,4.3,0,1.6.8,3,2,4.1,1.1,1,2.5,1.5,4,1.5s.2,0,.3,0c3.3-.2,5.8-3,5.6-6.2,0-1.6-.8-3-2-4.1Z"/>
    <path class="st1" d="M351.6,116.1c-1.1-36.6-20.1-70.2-51-90.1,0,.1,0,.2,0,.4-.2.5-.3,1-.6,1.3-.3.5-.6.9-1.1,1.4-.1,0-.2.2-.3.2,29.7,19.2,48,51.5,49.2,86.7l-4.3-4.3v6.4l6.4,6.4,6.4-6.4v-6.4l-4.5,4.5Z"/>
    <path class="st1" d="M329.5,113.8c-1.3-21.7-10.4-42.1-25.6-57.4-4.9-5-10.4-9.4-16.4-13.1,0,0,0-.2,0-.3,0-3.3-2.7-5.9-5.9-5.9s-2.5.4-3.5,1.2c-9.8-4.5-20.3-7.2-31.3-7.9-.8-2.5-3.1-4.2-5.7-4.2s-6,2.7-6,6,2.7,6,6,6,4.7-1.5,5.6-3.8c10.2.7,20,3.1,29.2,7.2-.1.5-.2,1-.2,1.5,0,3.3,2.7,5.9,5.9,5.9s3.3-.7,4.4-2c5.5,3.5,10.6,7.5,15.1,12.1,14.5,14.6,23.2,34.1,24.5,54.8-2.3.9-3.9,3.1-3.9,5.6s2.7,6,6,6,6-2.7,6-6-1.7-5-4.2-5.7Z"/>
    <path class="st0" d="M300,27.6c.2-.4.4-.8.6-1.3,0-.1,0-.2,0-.4.6-2.6-.6-5.2-2.8-6.5-2.9-1.6-6.6-.7-8.2,2.2-.8,1.4-1,3-.6,4.6.4,1.6,1.4,2.8,2.8,3.6.9.5,2,.8,3,.8s2.7-.5,3.8-1.4c.1,0,.2-.2.3-.2.5-.5.9-.9,1.1-1.4Z"/>
    <path class="st1" d="M239.9,202.4c-2.5,0-4.7,1.5-5.6,3.8-10.2-.7-20-3.1-29.1-7.2.1-.4.2-.8.2-1.2,0-3.3-2.7-5.9-5.9-5.9s-3.1.7-4.2,1.8c-5.5-3.5-10.7-7.6-15.3-12.2-14.5-14.6-23.2-34.1-24.5-54.8,2.3-.9,3.9-3.1,3.9-5.6s-2.7-6-6-6-6,2.7-6,6,1.7,5,4.2,5.7c1.3,21.7,10.4,42.1,25.6,57.4,4.9,5,10.5,9.4,16.4,13.1,0,.2,0,.3,0,.5,0,3.3,2.7,5.9,5.9,5.9s2.6-.5,3.7-1.3c9.8,4.5,20.2,7.1,31.1,7.8.8,2.5,3.1,4.2,5.7,4.2s6-2.7,6-6-2.7-6-6-6Z"/>
    <path class="st1" d="M181.1,212.9c.3-.5.6-.9,1.1-1.4,0,0,.2-.2.3-.3-29.7-19.2-48-51.5-49.1-86.7l4.3,4.3v-6.4l-6.4-6.4-6.4,6.4v6.4l4.5-4.5c1.1,36.6,20.1,70.2,51,90.1,0-.1,0-.2,0-.4.2-.5.3-1,.6-1.3Z"/>
    <path class="st0" d="M189.3,210.7c-2.2-1.2-4.8-1-6.8.6-.1,0-.2.2-.3.3-.5.5-.9.9-1.1,1.4-.2.4-.4.8-.6,1.3,0,.1,0,.2,0,.4-.6,2.6.6,5.2,2.8,6.5.9.5,1.9.8,3,.8s1.1,0,1.6-.2c1.6-.4,2.8-1.4,3.6-2.8s1-3,.6-4.6c-.4-1.6-1.4-2.8-2.8-3.6Z"/>
    <path class="st0" d="M210.1,65.3c0-.2.2-.3.2-.5.3-.7.5-1.5.4-2.3-.2-3-2.7-5.3-5.7-5.2s-5.3,2.7-5.2,5.7c.2,3,2.7,5.3,5.7,5.2.7,0,1.4-.2,1.9-.5.2,0,.3-.2.5-.2.9-.5,1.6-1.3,2.1-2.2Z"/>
    <path class="st0" d="M234.3,174.7c0,0,0,.1-.1.2-.5,1-.8,2.1-.7,3.2.2,3.4,3,6.1,6.4,6.1s.2,0,.3,0c3.5-.2,6.3-3.2,6.1-6.8-.2-3.4-3-6.1-6.4-6.1s-.2,0-.3,0c-.9,0-1.8.3-2.6.7,0,0-.1,0-.2.1-1.1.6-1.9,1.5-2.5,2.5Z"/>
  </g>
</svg>