<?xml version="1.0" encoding="UTF-8"?>
<svg id="Ebene_1" xmlns="http://www.w3.org/2000/svg" version="1.1" viewBox="0 0 33 42.3">
  <!-- Generator: Adobe Illustrator 30.0.0, SVG Export Plug-In . SVG Version: 2.1.1 Build 123)  -->
  <defs>
    <style>
      .st0 {
        fill: none;
      }

      .st1 {
        fill: #fff;
      }

      .st2 {
        fill: #254980;
      }
    </style>
  </defs>
  <path class="st0" d="M16.5,11.2h0c-1.9,0-3.7,1.1-4.6,2.7-.5.8-.7,1.7-.7,2.7s.2,1.9.7,2.7c.9,1.6,2.8,2.7,4.7,2.7s3.7-1.1,4.6-2.7c.5-.8.7-1.7.7-2.7s-.2-1.9-.7-2.7c-.9-1.6-2.8-2.7-4.7-2.7Z"/>
  <path class="st2" d="M29.3,9.8c-2.8-5.3-7.8-7.9-12.8-7.9S6.5,4.5,3.7,9.8c-3.1,5.9-1.8,13.1,1.3,18.8.6,1.1,1.3,2.2,2.1,3.2,2,2.7,4.5,4.9,7.2,7,.9.7,1.3,1,2.1,1.5,0,0,0,0,.1,0s0,0,.1,0c.7-.5.8-.5,2.1-1.5,2.6-2.1,5.2-4.3,7.2-7,.8-1,1.5-2.1,2.1-3.2,3.2-5.6,4.5-12.8,1.3-18.8ZM22.8,20.2c-1.3,2.2-3.8,3.6-6.3,3.6h0c-2.5,0-5-1.4-6.3-3.6-.6-1.1-1-2.4-1-3.6s.3-2.5,1-3.6c1.3-2.2,3.8-3.6,6.3-3.6h0c2.5,0,5,1.4,6.3,3.6.6,1.1,1,2.4,1,3.6s-.3,2.5-1,3.6Z"/>
  <path class="st1" d="M22.8,12.9c-1.3-2.2-3.8-3.6-6.3-3.6h0c-2.5,0-5,1.4-6.3,3.6-.6,1.1-1,2.4-1,3.6s.3,2.5,1,3.6c1.3,2.2,3.8,3.6,6.3,3.6h0c2.5,0,5-1.4,6.3-3.6.6-1.1,1-2.4,1-3.6s-.3-2.5-1-3.6ZM16.5,21.9c-1.9,0-3.7-1.1-4.7-2.7-.5-.8-.7-1.7-.7-2.7s.2-1.9.7-2.7c.9-1.6,2.8-2.7,4.6-2.7h0c1.9,0,3.7,1.1,4.7,2.7.5.8.7,1.7.7,2.7s-.2,1.9-.7,2.7c-.9,1.6-2.8,2.7-4.6,2.7Z"/>
  <path class="st1" d="M31,8.9C28,3.3,22.6,0,16.5,0S5,3.3,2,8.9c-3.1,5.9-2.6,13.6,1.4,20.6.6,1.1,1.4,2.3,2.2,3.4,2,2.8,4.5,5,7.5,7.4.6.5,1,.8,1.4,1.1.2.2.4.3.7.5.4.3.8.4,1.3.4s.9-.2,1.3-.4c.2-.2.3-.3.5-.4.3-.2.7-.5,1.6-1.2,3-2.4,5.5-4.6,7.5-7.4.8-1.1,1.6-2.3,2.2-3.4,4-7,4.5-14.7,1.4-20.6ZM16.5,40.4s0,0-.1,0c-.8-.6-1.2-.8-2.1-1.5-2.6-2.1-5.2-4.3-7.2-7-.8-1-1.5-2.1-2.1-3.2C1.8,22.9.6,15.8,3.7,9.8,6.5,4.5,11.5,1.9,16.5,1.9s10,2.6,12.8,7.9c3.1,5.9,1.8,13.1-1.3,18.8-.6,1.1-1.3,2.2-2.1,3.2-2,2.7-4.5,4.9-7.2,7-1.3,1-1.4,1-2.1,1.5,0,0,0,0-.1,0Z"/>
</svg>