<?xml version="1.0" encoding="UTF-8" standalone="no"?>
<svg
   id="Ebene_1"
   version="1.1"
   viewBox="0 0 33 42.3"
   sodipodi:docname="zielpunkt.svg"
   inkscape:version="1.4.2 (f4327f4, 2025-05-13)"
   inkscape:export-filename="startpunkt.png"
   inkscape:export-xdpi="96"
   inkscape:export-ydpi="96"
   xmlns:inkscape="http://www.inkscape.org/namespaces/inkscape"
   xmlns:sodipodi="http://sodipodi.sourceforge.net/DTD/sodipodi-0.dtd"
   xmlns="http://www.w3.org/2000/svg"
   xmlns:svg="http://www.w3.org/2000/svg">
  <sodipodi:namedview
     id="namedview4"
     pagecolor="#ffffff"
     bordercolor="#000000"
     borderopacity="0.25"
     inkscape:showpageshadow="2"
     inkscape:pageopacity="0.0"
     inkscape:pagecheckerboard="0"
     inkscape:deskcolor="#d1d1d1"
     inkscape:zoom="26.78487"
     inkscape:cx="13.851103"
     inkscape:cy="17.677891"
     inkscape:window-width="2560"
     inkscape:window-height="1369"
     inkscape:window-x="-8"
     inkscape:window-y="-8"
     inkscape:window-maximized="1"
     inkscape:current-layer="Ebene_1" />
  <!-- Generator: Adobe Illustrator 30.0.0, SVG Export Plug-In . SVG Version: 2.1.1 Build 123)  -->
  <defs
     id="defs1">
    <style
       id="style1">
      .st0 {
        fill: none;
      }

      .st1 {
        fill: #fff;
      }

      .st2 {
        fill: #254980;
      }
    </style>
  </defs>
  <path
     class="st2"
     d="M29.3,9.8c-2.8-5.3-7.8-7.9-12.8-7.9S6.5,4.5,3.7,9.8c-3.1,5.9-1.8,13.1,1.3,18.8.6,1.1,1.3,2.2,2.1,3.2,2,2.7,4.5,4.9,7.2,7,.9.7,1.3,1,2.1,1.5,0,0,0,0,.1,0s0,0,.1,0c.7-.5.8-.5,2.1-1.5,2.6-2.1,5.2-4.3,7.2-7,.8-1,1.5-2.1,2.1-3.2,3.2-5.6,4.5-12.8,1.3-18.8ZM22.8,20.2c-1.3,2.2-3.8,3.6-6.3,3.6h0c-2.5,0-5-1.4-6.3-3.6-.6-1.1-1-2.4-1-3.6s.3-2.5,1-3.6c1.3-2.2,3.8-3.6,6.3-3.6h0c2.5,0,5,1.4,6.3,3.6.6,1.1,1,2.4,1,3.6s-.3,2.5-1,3.6Z"
     id="path2"
     style="fill:#712579;fill-opacity:1" />
  <path
     class="st1"
     d="M31,8.9C28,3.3,22.6,0,16.5,0S5,3.3,2,8.9c-3.1,5.9-2.6,13.6,1.4,20.6.6,1.1,1.4,2.3,2.2,3.4,2,2.8,4.5,5,7.5,7.4.6.5,1,.8,1.4,1.1.2.2.4.3.7.5.4.3.8.4,1.3.4s.9-.2,1.3-.4c.2-.2.3-.3.5-.4.3-.2.7-.5,1.6-1.2,3-2.4,5.5-4.6,7.5-7.4.8-1.1,1.6-2.3,2.2-3.4,4-7,4.5-14.7,1.4-20.6ZM16.5,40.4s0,0-.1,0c-.8-.6-1.2-.8-2.1-1.5-2.6-2.1-5.2-4.3-7.2-7-.8-1-1.5-2.1-2.1-3.2C1.8,22.9.6,15.8,3.7,9.8,6.5,4.5,11.5,1.9,16.5,1.9s10,2.6,12.8,7.9c3.1,5.9,1.8,13.1-1.3,18.8-.6,1.1-1.3,2.2-2.1,3.2-2,2.7-4.5,4.9-7.2,7-1.3,1-1.4,1-2.1,1.5,0,0,0,0-.1,0Z"
     id="path4" />
  <ellipse
     style="fill:#ffffff;stroke-width:0.961413"
     id="path5"
     cx="16.483185"
     cy="16.651192"
     rx="7.3362312"
     ry="7.2428951" />
</svg>
