<?xml version="1.0" encoding="UTF-8" standalone="no"?>
<svg
   id="Ebene_1"
   version="1.1"
   viewBox="0 0 33 60.3"
   sodipodi:docname="zielpunkt.svg"
   inkscape:version="1.4.2 (f4327f4, 2025-05-13)"
   inkscape:export-filename="zielpunkt.png"
   inkscape:export-xdpi="96"
   inkscape:export-ydpi="96"
   xmlns:inkscape="http://www.inkscape.org/namespaces/inkscape"
   xmlns:sodipodi="http://sodipodi.sourceforge.net/DTD/sodipodi-0.dtd"
   xmlns="http://www.w3.org/2000/svg"
   xmlns:svg="http://www.w3.org/2000/svg">
  <sodipodi:namedview
     id="namedview6"
     pagecolor="#ffffff"
     bordercolor="#000000"
     borderopacity="0.25"
     inkscape:showpageshadow="2"
     inkscape:pageopacity="0.0"
     inkscape:pagecheckerboard="0"
     inkscape:deskcolor="#d1d1d1"
     inkscape:zoom="18.789387"
     inkscape:cx="16.498676"
     inkscape:cy="30.203221"
     inkscape:window-width="2560"
     inkscape:window-height="1351"
     inkscape:window-x="-9"
     inkscape:window-y="-9"
     inkscape:window-maximized="1"
     inkscape:current-layer="Ebene_1" />
  <!-- Generator: Adobe Illustrator 30.0.0, SVG Export Plug-In . SVG Version: 2.1.1 Build 123)  -->
  <defs
     id="defs1">
    <style
       id="style1">
      .st0 {
        fill: none;
      }

      .st1 {
        fill: #712579;
      }

      .st2 {
        fill: #fff;
      }
    </style>
  </defs>
  <g
     id="g3">
    <path
       class="st1"
       d="M23,37.7c-.9.9-2,1.7-3.1,2.6,2.5,1.3,4.1,3.8,4.1,6.8,0,4.2-3.4,7.6-7.6,7.6s-7.6-3.4-7.6-7.6,1.7-5.5,4.1-6.8c-1.1-.9-2.1-1.7-3.1-2.6-2.9,2.1-4.9,5.5-4.9,9.4,0,6.3,5.1,11.4,11.4,11.4s11.4-5.1,11.4-11.4-1.9-7.3-4.9-9.4Z"
       id="path1" />
    <circle
       class="st1"
       cx="16.5"
       cy="47"
       r="3.6"
       id="circle1" />
    <path
       class="st2"
       d="M24.5,36.3c1.1-1.1,2.1-2.2,3-3.4.8-1.1,1.6-2.3,2.2-3.4,4-7,4.5-14.7,1.4-20.6C28,3.3,22.6,0,16.5,0S5,3.3,2,8.9c-3.1,5.9-2.6,13.6,1.4,20.6.6,1.1,1.4,2.3,2.2,3.4.9,1.2,1.9,2.3,3,3.4-3.3,2.4-5.4,6.3-5.4,10.7,0,7.3,6,13.3,13.3,13.3s13.3-6,13.3-13.3-2.1-8.3-5.4-10.7ZM7.1,31.8c-.8-1-1.5-2.1-2.1-3.2C1.9,22.9.6,15.8,3.7,9.8,6.5,4.5,11.5,1.9,16.5,1.9s10,2.6,12.8,7.9c3.1,5.9,1.8,13.1-1.3,18.8-.6,1.1-1.3,2.2-2.1,3.2-.9,1.3-2,2.4-3.1,3.5-.5.5-1,.9-1.5,1.4-.8.7-1.7,1.5-2.6,2.2-.4.3-.7.5-.9.7-.5.4-.7.5-1.2.8,0,0,0,0-.1,0s0,0-.1,0c-.5-.3-.8-.6-1.2-.8-.3-.2-.5-.4-.9-.7-.9-.7-1.8-1.4-2.6-2.2-.5-.4-1-.9-1.5-1.4-1.1-1.1-2.1-2.2-3.1-3.5ZM16.5,58.4c-6.3,0-11.4-5.1-11.4-11.4s1.9-7.3,4.9-9.4c.9.9,2,1.7,3.1,2.6,0,0,0,0,0,0,.6.5,1,.8,1.4,1.1.2.2.4.3.7.5.4.3.8.4,1.3.4s.9-.2,1.3-.4c.2-.2.3-.3.5-.4.3-.2.7-.5,1.6-1.2,0,0,0,0,0,0,1.1-.9,2.1-1.7,3.1-2.6,2.9,2.1,4.9,5.5,4.9,9.4,0,6.3-5.1,11.4-11.4,11.4Z"
       id="path2" />
    <path
       class="st2"
       d="M20,40.2s0,0,0,0c-.9.7-1.3,1-1.6,1.2-.2.1-.3.2-.5.4-.4.3-.8.4-1.3.4s-.9-.1-1.3-.4c-.3-.2-.5-.3-.7-.5-.4-.3-.8-.6-1.4-1.1,0,0,0,0,0,0-2.5,1.3-4.1,3.8-4.1,6.8,0,4.2,3.4,7.6,7.6,7.6s7.6-3.4,7.6-7.6-1.7-5.5-4.1-6.8ZM16.5,50.6c-2,0-3.6-1.6-3.6-3.6s1.6-3.6,3.6-3.6,3.6,1.6,3.6,3.6-1.6,3.6-3.6,3.6Z"
       id="path3" />
  </g>
  <g
     id="g6">
    <path
       class="st1"
       d="M29.3,9.8c-2.8-5.3-7.8-7.9-12.8-7.9S6.5,4.5,3.7,9.8c-3.1,5.9-1.8,13.1,1.3,18.8.6,1.1,1.3,2.2,2.1,3.2.9,1.3,2,2.4,3.1,3.5.5.5,1,.9,1.5,1.4.8.7,1.7,1.5,2.6,2.2.4.3.6.5.9.7.4.3.7.5,1.2.8,0,0,0,0,.1,0s0,0,.1,0c.5-.3.7-.5,1.2-.8.2-.2.5-.4.9-.7.9-.7,1.8-1.4,2.6-2.2.5-.4,1-.9,1.5-1.4,1.1-1.1,2.1-2.2,3.1-3.5.8-1,1.5-2.1,2.1-3.2,3.2-5.6,4.5-12.8,1.3-18.8ZM22.8,20.2c-1.3,2.2-3.8,3.6-6.3,3.6h0c-2.5,0-5-1.4-6.3-3.6-.6-1.1-1-2.4-1-3.6s.3-2.5,1-3.6c1.3-2.2,3.8-3.6,6.3-3.6h0c2.5,0,5,1.4,6.3,3.6.6,1.1,1,2.4,1,3.6s-.3,2.5-1,3.6Z"
       id="path5" />
  </g>
  <ellipse
     style="fill:#ffffff;stroke-width:1.52406"
     id="path6"
     cx="16.498674"
     cy="16.57851"
     rx="7.2913504"
     ry="7.2647395" />
</svg>
